<svg width="25" height="25" viewBox="0 0 25 25" fill="none" xmlns="http://www.w3.org/2000/svg">
<path d="M12.25 2.5C6.73 2.5 2.25 6.98 2.25 12.5C2.25 18.02 6.73 22.5 12.25 22.5C17.77 22.5 22.25 18.02 22.25 12.5C22.25 6.98 17.77 2.5 12.25 2.5ZM12.25 5.5C13.91 5.5 15.25 6.84 15.25 8.5C15.25 10.16 13.91 11.5 12.25 11.5C10.59 11.5 9.25 10.16 9.25 8.5C9.25 6.84 10.59 5.5 12.25 5.5ZM12.25 19.7C9.75 19.7 7.54 18.42 6.25 16.48C6.28 14.49 10.25 13.4 12.25 13.4C14.24 13.4 18.22 14.49 18.25 16.48C16.96 18.42 14.75 19.7 12.25 19.7Z" fill="#0099FF"/>
</svg>
