<?xml version="1.0" encoding="utf-8"?>
<!-- Generator: Adobe Illustrator 27.8.1, SVG Export Plug-In . SVG Version: 6.00 Build 0)  -->
<svg version="1.1" xmlns="http://www.w3.org/2000/svg" xmlns:xlink="http://www.w3.org/1999/xlink" x="0px" y="0px"
	 viewBox="0 0 3710 3710" style="enable-background:new 0 0 3710 3710;" xml:space="preserve">
<style type="text/css">
	.st0{display:none;}
	.st1{display:inline;}
	.st2{fill:#FFFFFF;}
	.st3{fill:#E1F4FF;}
	.st4{fill:#97A6B7;}
	.st5{fill:#D8DEE8;}
	.st6{opacity:0.74;fill:#FFFFFF;}
	.st7{fill:url(#SVGID_1_);}
	.st8{opacity:0.3;fill:#97A6B7;}
	.st9{fill:url(#SVGID_00000060032761254755876810000006552855159987030678_);}
	.st10{opacity:0.5;fill:#FFFFFF;}
	.st11{opacity:0.51;fill:#FFFFFF;}
	.st12{fill:url(#SVGID_00000178187287436253243950000016958612992497718938_);}
	.st13{fill:url(#SVGID_00000002345186800506534610000012565600077496247467_);}
	.st14{fill:url(#SVGID_00000029754285586292056250000002984897016063509166_);}
	.st15{fill:url(#SVGID_00000158000646058101344580000004177237327389137076_);}
	.st16{fill:url(#SVGID_00000178182125107325865690000009008402051854367378_);}
	.st17{fill:url(#SVGID_00000160188790300644762880000007619594163112630152_);}
	.st18{fill:url(#SVGID_00000106106864271455126180000008146796807239046274_);}
	.st19{fill:url(#SVGID_00000114783634164647319430000008454124048601320580_);}
	.st20{fill:url(#SVGID_00000001628701709445932800000004272237157423428234_);}
	.st21{fill:url(#SVGID_00000095318391575494256880000016837008317869660325_);}
	.st22{fill:url(#SVGID_00000114754346977286444380000018275571902550199944_);}
	.st23{fill:url(#SVGID_00000059988939454521182000000008814981312612971444_);}
	.st24{fill:url(#SVGID_00000080928211869215721060000007872882146696632722_);}
</style>
<g id="Background" class="st0">
	<g class="st1">
		<g>
			<rect class="st2" width="3710" height="3710"/>
		</g>
	</g>
</g>
<g id="Illustration">
	<g>
		<path class="st3" d="M3152.56,2440.79c-137.44,365.73-422.44,557.64-531.54,622.41c-562.07,333.68-1405.8,231.67-1837.1-303.73
			c-276.18-342.84-279.78-735.22-276.97-846.96c15.26-606.75,462.22-1275.23,1121.26-1371.02
			c729.55-106.04,1230.53,535.81,1279.14,600.32C2966.2,1219.89,3391.82,1804.1,3152.56,2440.79z"/>
		<g>
			<g>
				<path class="st4" d="M2709.9,796.23L878.52,689.03c-42.18-2.08-80.15,44.49-80.15,83.6v2386.21c0,54.24,54.75,65.15,96.93,60.79
					l1814.6-187.52c33.15-3.43,59.91-34.12,59.91-68.57V861.56C2769.8,827.12,2743.04,797.87,2709.9,796.23z"/>
				<path class="st5" d="M2740.02,777.28L905.02,685.94c-42.18-2.1-76.53,28.14-76.53,67.55v2404.85
					c0,39.41,34.35,67.79,76.53,63.39l1834.99-191.11c33.15-3.45,59.91-34.38,59.91-69.1V843.12
					C2799.92,808.4,2773.16,778.93,2740.02,777.28z"/>
				<path class="st6" d="M905.02,3189.12c-22.75,2.32-41.31-13.06-41.31-34.3V755.09c0-21.24,18.56-37.63,41.31-36.54l1834.99,87.71
					c17.92,0.86,32.46,16.83,32.46,35.62v2122.39c0,18.78-14.55,35.55-32.46,37.38L905.02,3189.12z"/>
				<linearGradient id="SVGID_1_" gradientUnits="userSpaceOnUse" x1="2033.236" y1="2533.8723" x2="1202.5687" y2="361.3575">
					<stop  offset="3.597120e-03" style="stop-color:#0099FF"/>
					<stop  offset="1" style="stop-color:#008DED"/>
				</linearGradient>
				<polygon class="st7" points="2621.75,2944.73 1052.27,3097.74 1052.27,883.78 2621.75,943.59 				"/>
				<path class="st8" d="M1994.01,954.43l-627.25,7.94l14.07-143.14c1.06-18.6,14.35-33.87,31.84-36.59l106.23-16.52
					c12.51-1.94,23.28-10.31,28.74-22.32l11.52-25.31l277.85,17.36L1994.01,954.43z"/>
				
					<linearGradient id="SVGID_00000158728139898098735190000012218766562522742173_" gradientUnits="userSpaceOnUse" x1="1366.7566" y1="732.881" x2="2352.8416" y2="732.881">
					<stop  offset="0" style="stop-color:#444B8C"/>
					<stop  offset="0.9964" style="stop-color:#26264F"/>
				</linearGradient>
				<path style="fill:url(#SVGID_00000158728139898098735190000012218766562522742173_);" d="M2328.96,861.57
					c-2.98-16.19-15.8-27.56-31.95-28.29l-100.23-4.55c-45.49-2.06-78.84-39.46-77.17-86.83l3.87-109.76
					c0.72-20.3-13.61-36.57-33.3-37.76l-32.93-1.99c-25.11-1.52-41.83-23.92-38.31-49.82c6.16-45.26-24.49-84.32-68.91-87.39
					c-44.77-3.09-86.55,31.52-93.21,77.36c-0.99,6.81-3.26,13.54-6.96,19.55c-10.34,16.79-28.47,26.03-46.22,24.96l-33.97-2.05
					c-20.58-1.24-40.14,13.37-45.35,33.94l-28.24,111.42c-12.22,48.19-58.29,83.01-107.22,80.79l-109.95-4.99
					c-18.01-0.82-35.68,9.8-43.97,26.45l-66.25,133.02c-5.43,10.89,1.26,22.66,13.08,23.06l953.46,32.04
					c10.44,0.35,19.29-10.18,17.37-20.64L2328.96,861.57z M1936.51,550.19c-13.13-0.82-22.25-12.38-20.34-25.8
					c1.91-13.43,14.12-23.61,27.24-22.74c13.1,0.86,22.17,12.41,20.26,25.8C1961.77,540.83,1949.62,551.01,1936.51,550.19z"/>
				<path class="st4" d="M2334.61,864.54c-2.98-16.19-15.8-27.56-31.95-28.29l-100.23-4.55c-45.49-2.06-78.84-39.46-77.17-86.83
					l3.87-109.76c0.72-20.3-13.61-36.56-33.3-37.76l-32.93-1.99c-25.11-1.52-41.83-23.92-38.31-49.82
					c6.16-45.26-24.49-84.32-68.91-87.39c-44.77-3.09-86.55,31.52-93.22,77.36c-0.99,6.81-3.26,13.54-6.96,19.55
					c-10.34,16.79-28.47,26.03-46.22,24.96l-33.97-2.05c-20.58-1.24-40.14,13.37-45.35,33.94l-28.24,111.42
					c-12.21,48.19-58.29,83.01-107.22,80.79l-109.95-4.99c-18.01-0.82-35.68,9.8-43.97,26.45l-66.25,133.02
					c-5.43,10.89,1.26,22.66,13.08,23.06l953.46,32.04c10.44,0.35,19.29-10.18,17.37-20.64L2334.61,864.54z M1942.16,553.17
					c-13.13-0.82-22.25-12.38-20.34-25.8c1.91-13.43,14.12-23.61,27.24-22.74c13.11,0.86,22.17,12.41,20.26,25.8
					C1967.42,543.8,1955.27,553.99,1942.16,553.17z"/>
				<g>
					<path class="st10" d="M2171.44,925.67c-85.05-53.13-150.31-15.46-203.32-75.38c-56.74-64.14-18.47-148.59-77.18-188.44
						c-37.59-25.51-71.12-3.01-114.84-9.92c-16.01-2.53-33.09-8.97-50.84-21.52l-23.56,92.92c-12.22,48.19-58.29,83-107.22,80.79
						l-109.95-4.99c-18.01-0.82-35.68,9.8-43.97,26.45l-66.25,133.02c-5.43,10.89,1.26,22.66,13.08,23.06l866.5,29.12
						C2232.07,975.73,2204.96,946.61,2171.44,925.67z"/>
				</g>
			</g>
			<g>
				<g>
					<g>
						<path class="st2" d="M1855.09,2061.83c-1.71,0-3.35-0.67-4.58-1.86c-1.27-1.24-1.99-2.93-1.99-4.7v-959.9
							c0-1.76,0.7-3.44,1.95-4.67s2.82-1.91,4.7-1.89l674.57,8.94c3.59,0.05,6.47,2.97,6.47,6.56v932.21c0,3.55-2.83,6.46-6.38,6.56
							l-674.57,18.74C1855.21,2061.83,1855.15,2061.83,1855.09,2061.83z M1861.65,1102.02v946.5l661.45-18.37v-919.35
							L1861.65,1102.02z"/>
						<g>
							<path class="st2" d="M2353.07,1529.69c0,0,8.35-28.13,27.82-31.02c19.43-2.88,36.07-5.75,41.6,13.83
								c5.54,19.57,0,42.01-36.05,45.05C2350.28,1560.61,2353.07,1529.69,2353.07,1529.69z"/>
							<path class="st2" d="M2389.22,1434.13c0,0,19.42-8.43,24.96,8.37c5.54,16.8,5.54,36.41-13.86,47.68
								c-19.43,11.3-41.68,8.58-47.25-16.68C2347.5,1448.24,2372.55,1436.96,2389.22,1434.13z"/>
							<path class="st2" d="M2339.13,1420.14c-5.5-9.21-11.16-33.74,5.58-44.97c21.86-14.66,33.4-19.6,44.51-8.36
								c11.1,11.23,23.66,43.19,5.55,58.9C2375.33,1442.57,2351.5,1440.84,2339.13,1420.14z"/>
							<path class="st2" d="M2341.49,1366.05c-4.66,0.66-9.48-0.58-13.07-3.66c-2.51-2.16-4.93-5.3-6.03-9.75
								c-2.79-11.26,16.75-30.88,33.47-36.44c16.7-5.55,35.81,13.89,22.26,30.96C2367.89,1360.03,2360.01,1363.43,2341.49,1366.05z"
								/>
							<path class="st2" d="M2305.62,1321.63c0,0-8.39-19.74,2.8-33.77c11.18-14.01,19.56-22.4,33.51-16.69
								c13.93,5.7,27.85,25.43,11.15,39.4C2336.34,1324.56,2316.8,1335.74,2305.62,1321.63z"/>
							<path class="st2" d="M2287.6,1285.28c-3.08-0.78-5.56-3.03-6.74-6c-2.5-6.26-5.23-18.2,2.28-31.36
								c11-19.28,16.5-24.77,30.22-16.37c13.71,8.39,19.19,16.71,16.45,24.97c-2.74,8.27-16.45,21.99-24.69,27.48
								C2299.85,1287.49,2292.34,1286.47,2287.6,1285.28z"/>
							<path class="st2" d="M2250.67,1208.85c0,0,5.85-14.63,23.37-2.73c17.5,11.88,23.32,14.85,17.5,23.6
								c-5.83,8.75-17.5,29.2-35.02,26.15C2238.97,1252.82,2238.97,1226.38,2250.67,1208.85z"/>
							<path class="st2" d="M2212.95,1242.16c-8.46-0.06-11.28-5.74-14.11-17.07c-2.82-11.34-2.82-33.96,0-39.59
								c2.82-5.63,14.11-2.69,25.38,0.24c11.26,2.93,22.51,5.86,22.51,11.5S2241.66,1242.36,2212.95,1242.16z"/>
							<path class="st2" d="M2039.42,1531.4c0,0-8.59-28.44-28.66-31.21c-20.1-2.77-37.36-5.56-43.12,14.46
								c-5.76,20.03,0,42.85,37.38,45.46C2042.28,1562.7,2039.42,1531.4,2039.42,1531.4z"/>
							<path class="st2" d="M2002.15,1434.62c0,0-20.12-8.54-25.87,8.6c-5.76,17.15-5.76,37.14,14.38,48.49
								c20.1,11.33,43.03,8.39,48.76-17.27C2045.14,1448.8,2019.36,1437.45,2002.15,1434.62z"/>
							<path class="st2" d="M2053.72,1420.32c5.64-9.33,11.43-34.14-5.72-45.54c-22.47-14.94-34.37-20-45.85-8.62
								c-11.49,11.4-24.52,43.94-5.74,59.9C2016.5,1443.15,2041.03,1441.32,2053.72,1420.32z"/>
							<path class="st2" d="M2051.31,1365.55c4.78,0.68,9.72-0.55,13.38-3.66c2.57-2.18,5.04-5.34,6.17-9.83
								c2.85-11.37-17.14-31.35-34.3-37.1c-17.19-5.77-36.93,13.84-22.93,31.27C2024.17,1359.35,2032.28,1362.83,2051.31,1365.55z"
								/>
							<path class="st2" d="M2087.97,1320.84c0,0,8.55-19.85-2.85-34.12c-11.41-14.28-19.97-22.86-34.26-17.25
								c-14.31,5.61-28.63,25.48-11.44,39.8C2056.58,1323.57,2076.57,1335.01,2087.97,1320.84z"/>
							<path class="st2" d="M2106.31,1284.33c3.13-0.75,5.64-3,6.85-5.98c2.53-6.28,5.31-18.27-2.31-31.62
								c-11.18-19.6-16.77-25.22-30.76-16.96c-14.01,8.27-19.62,16.61-16.81,25.01c2.8,8.4,16.81,22.43,25.21,28.06
								C2093.85,1286.43,2101.49,1285.48,2106.31,1284.33z"/>
							<path class="st2" d="M2143.7,1207.94c0,0-5.91-14.8-23.64-3.16c-17.76,11.67-23.69,14.58-17.76,23.49
								c5.92,8.91,17.76,29.67,35.49,26.83C2155.5,1252.27,2155.5,1225.73,2143.7,1207.94z"/>
							<path class="st2" d="M2181.65,1241.93c8.48,0.06,11.3-5.58,14.13-16.87c2.82-11.29,2.82-33.92,0-39.6
								c-2.82-5.68-14.13-2.97-25.44-0.24c-11.33,2.72-22.66,5.45-22.66,11.12C2147.67,1202.01,2152.78,1241.73,2181.65,1241.93z"/>
							<path class="st2" d="M2353.07,1613.72c0,0,8.35,28.01,27.82,30.61c19.43,2.6,36.07,5.23,41.6-14.44
								c5.54-19.66,0-42.01-36.05-44.53C2350.28,1582.84,2353.07,1613.72,2353.07,1613.72z"/>
							<path class="st2" d="M2389.22,1708.75c0,0,19.42,8.15,24.96-8.74c5.54-16.88,5.54-36.49-13.86-47.48
								c-19.43-11.01-41.68-7.97-47.25,17.37C2347.5,1695.26,2372.55,1706.17,2389.22,1708.75z"/>
							<path class="st2" d="M2339.13,1723.47c-5.5,9.29-11.16,33.9,5.58,44.89c21.86,14.35,33.4,19.11,44.51,7.71
								c11.1-11.39,23.66-43.54,5.55-58.98C2375.33,1700.52,2351.5,1702.6,2339.13,1723.47z"/>
							<path class="st2" d="M2341.49,1777.53c-4.66-0.59-9.48,0.72-13.07,3.85c-2.51,2.2-4.93,5.37-6.03,9.83
								c-2.79,11.3,16.75,30.64,33.47,35.95c16.7,5.31,35.81-14.41,22.26-31.28C2367.89,1783.16,2360.01,1779.88,2341.49,1777.53z"
								/>
							<path class="st2" d="M2305.62,1822.46c0,0-8.39,19.87,2.8,33.73c11.18,13.85,19.56,22.11,33.51,16.21
								c13.93-5.9,27.85-25.83,11.15-39.56C2336.34,1819.09,2316.8,1808.19,2305.62,1822.46z"/>
							<path class="st2" d="M2287.6,1859.09c-3.08,0.82-5.56,3.11-6.74,6.1c-2.5,6.3-5.23,18.28,2.28,31.33
								c11,19.12,16.5,24.53,30.22,15.93c13.71-8.59,19.19-16.99,16.45-25.21c-2.74-8.23-16.45-21.75-24.69-27.12
								C2299.85,1856.69,2292.34,1857.82,2287.6,1859.09z"/>
							<path class="st2" d="M2250.67,1936.04c0,0,5.85,14.54,23.37,2.39c17.5-12.13,23.32-15.19,17.5-23.86
								c-5.83-8.67-17.5-28.95-35.02-25.64C2238.97,1892.25,2238.97,1918.69,2250.67,1936.04z"/>
							<path class="st2" d="M2212.95,1903.29c-8.46,0.18-11.28,5.9-14.11,17.27c-2.82,11.38-2.82,34.01,0,39.59
								c2.82,5.59,14.11,2.49,25.38-0.61c11.26-3.09,22.51-6.19,22.51-11.83C2246.73,1942.07,2241.66,1902.67,2212.95,1903.29z"/>
							<path class="st2" d="M2039.42,1616.57c0,0-8.59,28.57-28.66,31.62c-20.1,3.06-37.36,6.1-43.12-13.83
								c-5.76-19.94,0-42.85,37.38-46C2042.28,1585.22,2039.42,1616.57,2039.42,1616.57z"/>
							<path class="st2" d="M2002.15,1713.89c0,0-20.12,8.83-25.87-8.22c-5.76-17.06-5.76-37.06,14.38-48.7
								c20.1-11.62,43.03-9.01,48.76,16.56C2045.14,1699.08,2019.36,1710.81,2002.15,1713.89z"/>
							<path class="st2" d="M2053.72,1727.43c5.64,9.24,11.43,33.98-5.72,45.63c-22.47,15.27-34.37,20.5-45.85,9.28
								c-11.49-11.23-24.52-43.58-5.74-59.82C2016.5,1705.15,2041.03,1706.62,2053.72,1727.43z"/>
							<path class="st2" d="M2051.31,1782.24c4.78-0.75,9.72,0.41,13.38,3.47c2.57,2.14,5.04,5.26,6.17,9.74
								c2.85,11.33-17.14,31.59-34.3,37.6c-17.19,6.02-36.93-13.3-22.93-30.94C2024.17,1788.84,2032.28,1785.24,2051.31,1782.24z"/>
							<path class="st2" d="M2087.97,1826.42c0,0,8.55,19.73-2.85,34.16c-11.41,14.44-19.97,23.15-34.26,17.75
								c-14.31-5.4-28.63-25.06-11.44-39.64C2056.58,1824.15,2076.57,1812.41,2087.97,1826.42z"/>
							<path class="st2" d="M2106.31,1862.67c3.13,0.71,5.64,2.91,6.85,5.88c2.53,6.24,5.31,18.19-2.31,31.66
								c-11.18,19.76-16.77,25.46-30.76,17.4c-14.01-8.07-19.62-16.32-16.81-24.76c2.8-8.44,16.81-22.68,25.21-28.43
								C2093.85,1860.74,2101.49,1861.58,2106.31,1862.67z"/>
							<path class="st2" d="M2143.7,1938.51c0,0-5.91,14.89-23.64,3.5c-17.76-11.41-23.69-14.23-17.76-23.23
								c5.92-9,17.76-29.92,35.49-27.34C2155.5,1894.01,2155.5,1920.55,2143.7,1938.51z"/>
							<path class="st2" d="M2181.65,1903.97c8.48-0.18,11.3,5.41,14.13,16.67c2.82,11.25,2.82,33.88,0,39.6
								c-2.82,5.73-14.13,3.17-25.44,0.61c-11.33-2.56-22.66-5.12-22.66-10.79C2147.67,1944.38,2152.78,1904.59,2181.65,1903.97z"/>
						</g>
					</g>
					<polygon class="st11" points="1153.72,1260.43 1769.59,1264.14 1769.59,1237.59 1153.72,1233.19 					"/>
					<polygon class="st11" points="1153.72,1321.97 1769.59,1324.1 1769.59,1297.56 1153.72,1294.73 					"/>
					<polygon class="st11" points="1153.72,1383.51 1769.59,1384.07 1769.59,1357.53 1153.72,1356.27 					"/>
					<polygon class="st11" points="1153.72,1445.05 1769.59,1444.04 1769.59,1417.5 1153.72,1417.81 					"/>
					<polygon class="st11" points="1153.72,1700.45 1769.59,1692.91 1769.59,1666.36 1153.72,1673.21 					"/>
					<polygon class="st11" points="1153.72,1761.99 1769.59,1752.87 1769.59,1726.33 1153.72,1734.75 					"/>
					<polygon class="st11" points="1153.72,1823.53 1769.59,1812.84 1769.59,1786.3 1153.72,1796.29 					"/>
					<polygon class="st11" points="1153.72,1885.07 1769.59,1872.81 1769.59,1846.27 1153.72,1857.83 					"/>
				</g>
				<polygon class="st11" points="2548.14,2139.67 1131.65,2194.89 1131.65,2146.65 2548.14,2095.59 				"/>
			</g>
		</g>
		<g>
			<g>
				<path class="st2" d="M2820.51,2262.5c-31.23-30.34-99.68-64.42-157.94-57.52c-104.05,12.33-202.53,80.12-162.58,321.51
					c39,235.63,62.49,562.9,178.38,562.9c68.75,0,96.62-59.58,110.56-114.02s34.38-140.72,68.75-141.75s52.03,84.11,63.18,136.49
					c11.15,52.39,28.01,119.44,80.9,114.16c52.89-5.28,116.99-124.31,151.37-316.4c34.38-192.08,99.41-493.05-63.18-546.46
					C2967.33,2181.14,2919.92,2359.06,2820.51,2262.5z"/>
				<path class="st5" d="M2916.67,2313.35c36.33-6.02,50.9-44.17,85.47-78.07c4.65-4.56,9.78-9.15,15.44-13.67
					c-71.07,24.33-116.16,108.71-187.93,49.13C2853.65,2295.87,2884.55,2318.67,2916.67,2313.35z"/>
				<path class="st5" d="M3011.9,3017.36c-66.67-22.38-36.5-225.74-122.64-277.22c-63.25-37.8-124.89,29.33-178.38-17.46
					c-26.44-23.13-19.05-46.23-43.2-134.05c-43.26-157.32-96.39-191.13-75.72-256.28c16.12-50.83,61.06-76.54,78.04-86.28
					c31.43-18.04,63.56-22.96,91.56-22.04c-30.66-13.95-66.42-22.91-99-19.05c-104.05,12.33-202.53,80.12-162.58,321.51
					c39,235.63,62.49,562.9,178.38,562.9c68.75,0,96.62-59.58,110.56-114.02s34.38-140.72,68.75-141.75s52.03,84.11,63.18,136.49
					c11.15,52.39,28.01,119.44,80.9,114.16c32.92-3.29,67.99-43.16,99.05-125.02C3079.21,3016.15,3032.37,3024.23,3011.9,3017.36z"
					/>
			</g>
			<g>
				<path class="st2" d="M2171.75,2293.54c-33.48-32.52-106.87-69.07-169.32-61.67c-111.55,13.21-217.13,85.89-174.3,344.68
					c41.81,252.61,67,603.46,191.23,603.46c73.7,0,103.58-63.87,118.52-122.23c14.94-58.36,36.85-150.87,73.7-151.97
					c36.85-1.1,55.78,90.17,67.73,146.33c11.95,56.16,30.03,128.05,86.73,122.39c56.7-5.66,125.42-133.27,162.27-339.2
					c36.85-205.93,106.57-528.58-67.73-585.84C2329.15,2206.31,2278.32,2397.05,2171.75,2293.54z"/>
				<path class="st5" d="M2274.83,2348.05c38.95-6.46,54.56-47.36,91.63-83.69c4.99-4.89,10.48-9.81,16.55-14.66
					c-76.19,26.08-124.53,116.55-201.47,52.67C2207.27,2329.31,2240.4,2353.75,2274.83,2348.05z"/>
				<path class="st5" d="M2376.92,3102.79c-71.47-23.99-39.14-242.01-131.47-297.2c-67.81-40.53-133.88,31.44-191.23-18.72
					c-28.34-24.79-20.42-49.56-46.31-143.71c-46.38-168.66-103.33-204.91-81.17-274.75c17.29-54.49,65.46-82.05,83.66-92.5
					c33.7-19.34,68.15-24.61,98.16-23.62c-32.87-14.96-71.21-24.56-106.13-20.42c-111.55,13.21-217.13,85.89-174.3,344.68
					c41.81,252.61,67,603.46,191.23,603.46c73.7,0,103.58-63.87,118.52-122.23c14.94-58.36,36.85-150.87,73.7-151.97
					c36.85-1.1,55.78,90.17,67.73,146.33c11.95,56.16,30.03,128.05,86.73,122.39c35.29-3.52,72.89-46.27,106.19-134.03
					C2449.09,3101.5,2398.87,3110.16,2376.92,3102.79z"/>
			</g>
			<g>
				<path class="st2" d="M1465.8,2297.55c-35.63-34.6-113.71-73.49-180.16-65.61c-118.69,14.06-231.03,91.39-185.46,366.74
					c44.48,268.78,71.28,642.09,203.47,642.09c78.42,0,110.21-67.96,126.11-130.06c15.9-62.1,39.21-160.52,78.42-161.69
					s59.35,95.94,72.06,155.7s31.95,136.25,92.28,130.22c60.33-6.02,133.45-141.8,172.66-360.91
					c39.21-219.11,113.39-562.41-72.06-623.34C1633.27,2204.73,1579.19,2407.69,1465.8,2297.55z"/>
				<path class="st5" d="M1575.48,2355.54c41.45-6.87,58.06-50.39,97.5-89.05c5.31-5.2,11.16-10.44,17.61-15.6
					c-81.07,27.75-132.5,124.01-214.37,56.04C1503.59,2335.61,1538.85,2361.62,1575.48,2355.54z"/>
				<path class="st5" d="M1684.11,3158.6c-76.05-25.53-41.64-257.5-139.89-316.22c-72.15-43.12-142.45,33.45-203.47-19.92
					c-30.16-26.38-21.73-52.74-49.28-152.91c-49.35-179.45-109.94-218.02-86.37-292.34c18.39-57.98,69.65-87.3,89.02-98.42
					c35.85-20.58,72.51-26.19,104.45-25.14c-34.97-15.91-75.77-26.13-112.92-21.73c-118.69,14.06-231.03,91.39-185.46,366.74
					c44.48,268.78,71.28,642.09,203.47,642.09c78.42,0,110.21-67.96,126.11-130.06c15.9-62.1,39.21-160.52,78.42-161.69
					s59.35,95.94,72.06,155.7s31.95,136.25,92.28,130.22c37.55-3.75,77.56-49.23,112.98-142.61
					C1760.89,3157.22,1707.46,3166.44,1684.11,3158.6z"/>
			</g>
			<g>
				<g>
					<g>
						
							<linearGradient id="SVGID_00000164480857635830578730000009307043092136735643_" gradientUnits="userSpaceOnUse" x1="1787.2836" y1="2505.8062" x2="1498.5277" y2="2675.3508">
							<stop  offset="3.597120e-03" style="stop-color:#0099FF"/>
							<stop  offset="1" style="stop-color:#008DED"/>
						</linearGradient>
						<path style="fill:url(#SVGID_00000164480857635830578730000009307043092136735643_);" d="M1650,2497.76l-85.69,2.39
							c-29.71,0.83-53.87,23.9-53.87,51.52v127.16c0,27.62,24.15,49.07,53.87,47.92l85.69-3.34c29.38-1.15,53.14-24.26,53.14-51.62
							v-125.96C1703.14,2518.46,1679.38,2496.94,1650,2497.76z"/>
						
							<linearGradient id="SVGID_00000122719362279434575230000002030714584625455801_" gradientUnits="userSpaceOnUse" x1="1737.0841" y1="2481.9233" x2="1596.0947" y2="2622.9128">
							<stop  offset="3.597120e-03" style="stop-color:#0099FF"/>
							<stop  offset="1" style="stop-color:#008DED"/>
						</linearGradient>
						<path style="fill:url(#SVGID_00000122719362279434575230000002030714584625455801_);" d="M1635.32,2543.93l-56.21,1.7
							c-16.18,0.49-29.31,13.08-29.31,28.12v80.38c0,15.04,13.13,26.75,29.31,26.16l56.21-2.07c16.06-0.59,29.06-13.19,29.06-28.15
							v-79.93C1664.38,2555.18,1651.38,2543.45,1635.32,2543.93z"/>
					</g>
					<g>
						
							<linearGradient id="SVGID_00000019650786500018747730000006121417796196180864_" gradientUnits="userSpaceOnUse" x1="2478.8691" y1="2511.2446" x2="2224.5518" y2="2627.8069">
							<stop  offset="3.597120e-03" style="stop-color:#0099FF"/>
							<stop  offset="1" style="stop-color:#008DED"/>
						</linearGradient>
						<path style="fill:url(#SVGID_00000019650786500018747730000006121417796196180864_);" d="M2351.12,2478.2l-79.87,2.23
							c-27.69,0.77-50.2,23.02-50.2,49.68v122.74c0,26.66,22.51,47.4,50.2,46.32l79.87-3.12c27.39-1.07,49.54-23.35,49.54-49.77
							v-121.63C2400.66,2498.23,2378.51,2477.43,2351.12,2478.2z"/>
						
							<linearGradient id="SVGID_00000005259242741587182730000009387124406767972248_" gradientUnits="userSpaceOnUse" x1="2434.6045" y1="2464.8923" x2="2300.686" y2="2598.811">
							<stop  offset="3.597120e-03" style="stop-color:#0099FF"/>
							<stop  offset="1" style="stop-color:#008DED"/>
						</linearGradient>
						<path style="fill:url(#SVGID_00000005259242741587182730000009387124406767972248_);" d="M2337.44,2522.76l-52.4,1.58
							c-15.08,0.45-27.31,12.59-27.31,27.11v77.6c0,14.52,12.24,25.84,27.31,25.29l52.4-1.93c14.97-0.55,27.09-12.7,27.09-27.14
							v-77.18C2364.53,2533.65,2352.41,2522.31,2337.44,2522.76z"/>
					</g>
					<g>
						
							<linearGradient id="SVGID_00000050657164528758554340000003530258186508727224_" gradientUnits="userSpaceOnUse" x1="3179.1133" y1="2482.1873" x2="2969.8311" y2="2556.3633">
							<stop  offset="3.597120e-03" style="stop-color:#0099FF"/>
							<stop  offset="1" style="stop-color:#008DED"/>
						</linearGradient>
						<path style="fill:url(#SVGID_00000050657164528758554340000003530258186508727224_);" d="M2976.85,2460.73l-74.85,2.09
							c-25.95,0.72-47.03,22.23-47.03,48.04v118.81c0,25.81,21.09,45.91,47.03,44.9l74.85-2.92c25.67-1,46.43-22.55,46.43-48.13
							v-117.76C3023.28,2480.17,3002.52,2460.02,2976.85,2460.73z"/>
						
							<linearGradient id="SVGID_00000147914835551219228110000013297006163629973142_" gradientUnits="userSpaceOnUse" x1="3057.1643" y1="2449.5605" x2="2929.4099" y2="2577.3152">
							<stop  offset="3.597120e-03" style="stop-color:#0099FF"/>
							<stop  offset="1" style="stop-color:#008DED"/>
						</linearGradient>
						<path style="fill:url(#SVGID_00000147914835551219228110000013297006163629973142_);" d="M2964.02,2503.86l-49.1,1.48
							c-14.13,0.43-25.59,12.17-25.59,26.22v75.11c0,14.05,11.47,25.03,25.59,24.51l49.1-1.8c14.03-0.52,25.39-12.27,25.39-26.25
							v-74.72C2989.41,2514.43,2978.05,2503.44,2964.02,2503.86z"/>
					</g>
				</g>
				<g>
					
						<linearGradient id="SVGID_00000160191356555358038340000016955389128481314958_" gradientUnits="userSpaceOnUse" x1="1680.6111" y1="2486.9377" x2="1481.933" y2="2911.5098">
						<stop  offset="3.597120e-03" style="stop-color:#0099FF"/>
						<stop  offset="1" style="stop-color:#008DED"/>
					</linearGradient>
					<path style="fill:url(#SVGID_00000160191356555358038340000016955389128481314958_);" d="M1665.42,2497.76l-85.69,2.39
						c-29.71,0.83-53.87,23.9-53.87,51.52v127.16c0,27.62,24.15,49.07,53.87,47.92l85.69-3.34c29.38-1.15,53.14-24.26,53.14-51.62
						v-125.96C1718.55,2518.46,1694.8,2496.94,1665.42,2497.76z"/>
					
						<linearGradient id="SVGID_00000180336623759116857650000004285645295100214162_" gradientUnits="userSpaceOnUse" x1="2382.197" y1="2468.7041" x2="2191.98" y2="2875.1948">
						<stop  offset="3.597120e-03" style="stop-color:#0099FF"/>
						<stop  offset="1" style="stop-color:#008DED"/>
					</linearGradient>
					<path style="fill:url(#SVGID_00000180336623759116857650000004285645295100214162_);" d="M2366.54,2478.2l-79.87,2.23
						c-27.69,0.77-50.2,23.02-50.2,49.68v122.74c0,26.66,22.51,47.4,50.2,46.32l79.87-3.12c27.39-1.07,49.54-23.35,49.54-49.77
						v-121.63C2416.08,2498.23,2393.93,2477.43,2366.54,2478.2z"/>
					
						<linearGradient id="SVGID_00000107577956528058346230000009445748386863663770_" gradientUnits="userSpaceOnUse" x1="3008.2808" y1="2452.3647" x2="2825.5042" y2="2842.9556">
						<stop  offset="3.597120e-03" style="stop-color:#0099FF"/>
						<stop  offset="1" style="stop-color:#008DED"/>
					</linearGradient>
					<path style="fill:url(#SVGID_00000107577956528058346230000009445748386863663770_);" d="M2992.27,2460.73l-74.85,2.09
						c-25.95,0.72-47.03,22.23-47.03,48.04v118.81c0,25.81,21.09,45.91,47.03,44.9l74.85-2.92c25.67-1,46.43-22.55,46.43-48.13
						v-117.76C3038.7,2480.17,3017.94,2460.02,2992.27,2460.73z"/>
					
						<linearGradient id="SVGID_00000124131531495684237500000001771919847121878201_" gradientUnits="userSpaceOnUse" x1="1622.0817" y1="2589.8208" x2="2955.343" y2="2589.8208">
						<stop  offset="3.597120e-03" style="stop-color:#0099FF"/>
						<stop  offset="1" style="stop-color:#008DED"/>
					</linearGradient>
					<path style="fill:url(#SVGID_00000124131531495684237500000001771919847121878201_);" d="M1622.93,2626.68l-0.85-29.13
						c7.16-0.21,722.89-21.16,1332.14-44.58l1.12,29.12C2345.95,2605.51,1630.09,2626.47,1622.93,2626.68z"/>
					
						<linearGradient id="SVGID_00000116951179604447313360000009795450584687668369_" gradientUnits="userSpaceOnUse" x1="1752.5006" y1="2481.9233" x2="1611.5111" y2="2622.9128">
						<stop  offset="3.597120e-03" style="stop-color:#0099FF"/>
						<stop  offset="1" style="stop-color:#008DED"/>
					</linearGradient>
					<path style="fill:url(#SVGID_00000116951179604447313360000009795450584687668369_);" d="M1650.74,2543.93l-56.21,1.7
						c-16.18,0.49-29.31,13.08-29.31,28.12v80.38c0,15.04,13.13,26.75,29.31,26.16l56.21-2.07c16.06-0.59,29.06-13.19,29.06-28.15
						v-79.93C1679.8,2555.18,1666.8,2543.45,1650.74,2543.93z"/>
					
						<linearGradient id="SVGID_00000166659553892653092450000001843037351074412955_" gradientUnits="userSpaceOnUse" x1="2450.021" y1="2464.8923" x2="2316.1025" y2="2598.811">
						<stop  offset="3.597120e-03" style="stop-color:#0099FF"/>
						<stop  offset="1" style="stop-color:#008DED"/>
					</linearGradient>
					<path style="fill:url(#SVGID_00000166659553892653092450000001843037351074412955_);" d="M2352.85,2522.76l-52.4,1.58
						c-15.08,0.45-27.31,12.59-27.31,27.11v77.6c0,14.52,12.24,25.84,27.31,25.29l52.4-1.93c14.97-0.55,27.09-12.7,27.09-27.14
						v-77.18C2379.95,2533.65,2367.82,2522.31,2352.85,2522.76z"/>
					
						<linearGradient id="SVGID_00000065032352684336185780000004644351374005653134_" gradientUnits="userSpaceOnUse" x1="3072.5808" y1="2449.5605" x2="2944.8262" y2="2577.3152">
						<stop  offset="3.597120e-03" style="stop-color:#0099FF"/>
						<stop  offset="1" style="stop-color:#008DED"/>
					</linearGradient>
					<path style="fill:url(#SVGID_00000065032352684336185780000004644351374005653134_);" d="M2979.44,2503.86l-49.1,1.48
						c-14.13,0.43-25.59,12.17-25.59,26.22v75.11c0,14.05,11.47,25.03,25.59,24.51l49.1-1.8c14.03-0.52,25.39-12.27,25.39-26.25
						v-74.72C3004.83,2514.43,2993.47,2503.44,2979.44,2503.86z"/>
				</g>
			</g>
		</g>
	</g>
</g>
</svg>
