<svg width="223" height="195" viewBox="0 0 223 195" fill="none" xmlns="http://www.w3.org/2000/svg">
<path d="M286.928 306.208C296.843 292.391 303.938 276.756 307.81 260.197C311.682 243.637 312.255 226.477 309.495 209.696C306.735 192.916 300.697 176.843 291.726 162.395C282.755 147.948 271.025 135.409 257.208 125.495C243.391 115.581 227.756 108.485 211.197 104.613C194.637 100.741 177.477 100.169 160.696 102.928C143.916 105.688 127.843 111.726 113.395 120.697C98.9481 129.669 86.4094 141.398 76.495 155.215L181.712 230.712L286.928 306.208Z" fill="url(#paint0_linear_5102_327)" fill-opacity="0.4"/>
<path d="M305.114 272.279C308.436 257.429 308.8 242.071 306.186 227.08C303.573 212.089 298.032 197.76 289.88 184.911C281.729 172.062 271.126 160.944 258.678 152.192C246.23 143.44 232.18 137.226 217.33 133.904C202.48 130.582 187.122 130.218 172.131 132.832C157.14 135.445 142.811 140.986 129.962 149.138C117.113 157.289 105.995 167.892 97.2429 180.34C88.4911 192.788 82.2769 206.838 78.9551 221.688L192.034 246.984L305.114 272.279Z" fill="url(#paint1_linear_5102_327)" fill-opacity="0.4"/>
<path d="M271.804 280.331C284.623 269.157 295.116 255.567 302.684 240.337C310.251 225.108 314.745 208.537 315.908 191.57C317.072 174.604 314.882 157.575 309.464 141.455C304.046 125.334 295.506 110.439 284.331 97.6198C273.157 84.8002 259.567 74.3071 244.337 66.7395C229.108 59.172 212.537 54.6783 195.57 53.515C178.604 52.3517 161.575 54.5415 145.455 59.9595C129.334 65.3775 114.439 73.9174 101.62 85.0919L186.712 182.712L271.804 280.331Z" fill="url(#paint2_linear_5102_327)" fill-opacity="0.7"/>
<defs>
<linearGradient id="paint0_linear_5102_327" x1="114.534" y1="112.252" x2="187.679" y2="254.773" gradientUnits="userSpaceOnUse">
<stop stop-color="#0099FF"/>
<stop offset="1" stop-color="#C6E7E6" stop-opacity="0"/>
</linearGradient>
<linearGradient id="paint1_linear_5102_327" x1="95.2211" y1="172.987" x2="205.377" y2="264.703" gradientUnits="userSpaceOnUse">
<stop stop-color="#0099FF"/>
<stop offset="1" stop-color="#C6E7E6" stop-opacity="0"/>
</linearGradient>
<linearGradient id="paint2_linear_5102_327" x1="148.5" y1="52" x2="187" y2="207.5" gradientUnits="userSpaceOnUse">
<stop stop-color="#0099FF"/>
<stop offset="1" stop-color="#C6E7E6" stop-opacity="0"/>
</linearGradient>
</defs>
</svg>
