<svg width="370" height="387" viewBox="0 0 370 387" fill="none" xmlns="http://www.w3.org/2000/svg">
<path d="M286.928 288.03C296.843 275.033 303.938 260.326 307.81 244.75C311.682 229.173 312.255 213.032 309.495 197.247C306.735 181.463 300.697 166.344 291.726 152.755C282.755 139.165 271.025 127.371 257.208 118.045C243.391 108.719 227.756 102.045 211.197 98.4025C194.637 94.7603 177.477 94.2218 160.696 96.8178C143.916 99.4137 127.843 105.093 113.395 113.532C98.9481 121.971 86.4094 133.004 76.495 146.001L181.712 217.015L286.928 288.03Z" fill="url(#paint0_linear_5097_325)" fill-opacity="0.4"/>
<path d="M305.114 256.115C308.436 242.147 308.8 227.7 306.186 213.599C303.573 199.498 298.032 186.02 289.88 173.934C281.729 161.847 271.126 151.389 258.678 143.157C246.23 134.925 232.18 129.079 217.33 125.955C202.48 122.83 187.122 122.487 172.131 124.946C157.14 127.405 142.811 132.616 129.962 140.284C117.113 147.951 105.995 157.925 97.2429 169.634C88.4911 181.343 82.2769 194.559 78.9551 208.527L192.034 232.321L305.114 256.115Z" fill="url(#paint1_linear_5097_325)" fill-opacity="0.4"/>
<path d="M271.804 263.689C284.623 253.178 295.116 240.395 302.684 226.069C310.251 211.744 314.745 196.157 315.908 180.197C317.072 164.238 314.882 148.22 309.464 133.057C304.046 117.894 295.506 103.883 284.331 91.8245C273.157 79.7659 259.567 69.8957 244.337 62.7775C229.108 55.6592 212.537 51.4323 195.57 50.338C178.604 49.2438 161.575 51.3036 145.455 56.3999C129.334 61.4962 114.439 69.5292 101.62 80.0403L186.712 171.865L271.804 263.689Z" fill="url(#paint2_linear_5097_325)" fill-opacity="0.7"/>
<defs>
<linearGradient id="paint0_linear_5097_325" x1="114.534" y1="105.588" x2="180.845" y2="242.947" gradientUnits="userSpaceOnUse">
<stop stop-color="#85CBC9"/>
<stop offset="1" stop-color="#C6E7E6" stop-opacity="0"/>
</linearGradient>
<linearGradient id="paint1_linear_5097_325" x1="95.2211" y1="162.718" x2="199.802" y2="255.287" gradientUnits="userSpaceOnUse">
<stop stop-color="#85CBC9"/>
<stop offset="1" stop-color="#C6E7E6" stop-opacity="0"/>
</linearGradient>
<linearGradient id="paint2_linear_5097_325" x1="148.5" y1="48.913" x2="182.793" y2="196.161" gradientUnits="userSpaceOnUse">
<stop stop-color="#85CBC9"/>
<stop offset="1" stop-color="#C6E7E6" stop-opacity="0"/>
</linearGradient>
</defs>
</svg>
