<svg width="321" height="161" viewBox="0 0 321 161" fill="none" xmlns="http://www.w3.org/2000/svg">
<path d="M265.748 11.7003C272.605 9.86283 279.853 10.1001 286.576 12.3821C293.299 14.6641 299.193 18.8884 303.515 24.5207C307.837 30.153 310.392 36.9403 310.856 44.0245C311.32 51.1086 309.674 58.1714 306.124 64.3196C302.574 70.4678 297.281 75.4253 290.914 78.5653C284.547 81.7052 277.391 82.8866 270.353 81.9599C263.314 81.0333 256.708 78.0403 251.371 73.3593C246.033 68.6784 242.204 62.5198 240.366 55.6624" stroke="#2441A8" stroke-width="20" stroke-linecap="round"/>
<path d="M23.2012 148.096C19.0061 145.674 15.6233 142.062 13.4808 137.717C11.3383 133.373 10.5322 128.49 11.1645 123.688C11.7968 118.885 13.8391 114.378 17.033 110.736C20.227 107.094 24.4292 104.48 29.1083 103.227C33.7874 101.973 38.7332 102.135 43.3203 103.692C47.9073 105.249 51.9297 108.131 54.8786 111.974C57.8275 115.818 59.5706 120.449 59.8874 125.283C60.2043 130.116 59.0806 134.936 56.6585 139.131" stroke="#2441A8" stroke-width="20" stroke-linecap="round"/>
</svg>
