<svg width="54" height="54" viewBox="0 0 54 54" fill="none" xmlns="http://www.w3.org/2000/svg">
<g clip-path="url(#clip0_16_13)">
<path d="M20.7594 0.045166L9.82884 0.0894257C8.41192 0.0894257 7.08462 0.876616 6.40989 2.11273L0.696884 12.4547L19.6566 12.4094L20.7594 0.045166Z" fill="#DE1212"/>
<path d="M44.284 12.3643L38.5046 2.0233C37.8066 0.787191 36.5025 0 35.0635 0L24.133 0.0453135L25.28 12.4096L44.284 12.3643Z" fill="#DE1212"/>
<path d="M45.004 21.1098C43.2276 20.5703 41.3384 20.2784 39.3817 20.2784C28.8339 20.2784 20.2649 28.8437 20.2649 39.387C20.2649 41.3428 20.5569 43.2534 21.1199 45.0301L3.64456 45.0754C3.62242 45.0754 3.62242 45.0754 3.62242 45.0754C1.68786 45.0754 0.0917202 43.4789 0.0917202 41.523L0 15.8271L20.8036 15.7818H24.1772L44.9808 15.7144L45.004 21.1098Z" fill="#DE1212"/>
<path d="M39.3817 24.7739C31.3209 24.7739 24.7623 31.3296 24.7623 39.387C24.7623 47.4444 31.3209 54.0001 39.3817 54.0001C47.4425 54.0001 54.0011 47.4444 54.0011 39.387C54.0011 31.3296 47.4425 24.7739 39.3817 24.7739ZM45.1358 40.3903H40.4739V45.3178H38.2884V40.3903H33.6265V38.3174H38.2884V33.4573H40.4739V38.3174H45.1358V40.3903Z" fill="#FD9902"/>
</g>
<defs>
<clipPath id="clip0_16_13">
<rect width="54" height="54" fill="white"/>
</clipPath>
</defs>
</svg>
