<svg width="800" height="615" viewBox="0 0 800 615" fill="none" xmlns="http://www.w3.org/2000/svg">
<path fill-rule="evenodd" clip-rule="evenodd" d="M413.267 462.035C512.274 519.196 638.873 485.274 696.035 386.267C753.196 287.261 719.274 160.661 620.267 103.5C521.261 46.3385 394.661 80.2607 337.5 179.267C280.339 278.274 314.261 404.873 413.267 462.035Z" fill="white" fill-opacity="0.08"/>
<path fill-rule="evenodd" clip-rule="evenodd" d="M172.772 514.294C268.191 569.385 390.204 536.691 445.294 441.272C500.385 345.853 467.691 223.84 372.272 168.75C276.853 113.66 154.84 146.353 99.75 241.772C44.6596 337.191 77.3527 459.204 172.772 514.294Z" fill="white" fill-opacity="0.08"/>
<path fill-rule="evenodd" clip-rule="evenodd" d="M155.389 524.029C237.895 571.663 343.394 543.395 391.029 460.889C438.663 378.384 410.395 272.885 327.889 225.25C245.384 177.615 139.885 205.884 92.25 288.389C44.6154 370.895 72.8839 476.394 155.389 524.029Z" fill="white" fill-opacity="0.08"/>
</svg>
