<svg width="10" height="16" viewBox="0 0 10 16" fill="none" xmlns="http://www.w3.org/2000/svg">
<path d="M0.990371 2.79865L0.991288 2.79955L5.38312 7.0313L5.38335 7.03153L6.37496 7.97447L0.991332 13.149C0.878359 13.2575 0.786245 13.3786 0.728206 13.5125C0.67118 13.644 0.636462 13.7877 0.636462 13.9324C0.636462 14.0841 0.658902 14.2291 0.728907 14.3644C0.785309 14.4941 0.865047 14.6261 0.969428 14.7264L0.96938 14.7264L0.971365 14.7281C1.08323 14.8249 1.20846 14.9129 1.34691 14.9683C1.48592 15.024 1.64598 15.0456 1.79263 15.0456C1.94242 15.0456 2.09077 15.0124 2.23711 14.9583L2.23711 14.9583L2.23836 14.9578C2.3768 14.9024 2.50257 14.8142 2.60489 14.7159L8.80383 8.75772C8.90773 8.65786 8.98798 8.53636 9.04505 8.40471L9.04507 8.40472L9.0456 8.4034C9.10201 8.26241 9.13679 8.11915 9.13679 7.97428C9.13679 7.82953 9.10208 7.68592 9.04505 7.55438C8.98798 7.42273 8.90773 7.30122 8.80383 7.20136L2.60489 1.24323L2.6049 1.24322L2.6039 1.24231C2.38557 1.04351 2.09933 0.945057 1.80359 0.945057C1.50552 0.945057 1.21941 1.06612 1.01324 1.26428C0.796053 1.47303 0.680538 1.73813 0.680272 2.02568C0.669028 2.31397 0.784589 2.58987 0.990371 2.79865Z" fill="#B3B3B3" stroke="#B3B3B3" stroke-width="0.1"/>
</svg>
