<svg width="9" height="16" viewBox="0 0 9 16" fill="none" xmlns="http://www.w3.org/2000/svg">
<path d="M8.54454 13.192L8.54362 13.191L4.1518 8.9593L4.15156 8.95907L3.15995 8.01613L8.54358 2.84164C8.65655 2.73306 8.74867 2.61198 8.80671 2.4781C8.86373 2.34655 8.89845 2.20294 8.89845 2.05819C8.89845 1.90653 8.87601 1.7615 8.80601 1.62615C8.7496 1.49647 8.66987 1.36455 8.56548 1.26422L8.56553 1.26417L8.56355 1.26246C8.45169 1.16569 8.32645 1.07771 8.188 1.02227C8.04899 0.966595 7.88893 0.944995 7.74228 0.944995C7.59249 0.944995 7.44414 0.978215 7.29781 1.03231L7.2978 1.03229L7.29655 1.03279C7.15811 1.08824 7.03234 1.17641 6.93002 1.27475L0.731085 7.23288C0.627184 7.33274 0.546933 7.45424 0.489863 7.58589L0.489844 7.58588L0.489316 7.5872C0.4329 7.72819 0.39812 7.87145 0.39812 8.01632C0.39812 8.16107 0.432837 8.30468 0.489863 8.43622C0.546933 8.56787 0.627184 8.68938 0.731085 8.78924L6.93002 14.7474L6.93001 14.7474L6.93101 14.7483C7.14934 14.9471 7.43559 15.0455 7.73133 15.0455C8.02939 15.0455 8.31551 14.9245 8.52168 14.7263C8.73886 14.5176 8.85437 14.2525 8.85464 13.9649C8.86588 13.6766 8.75032 13.4007 8.54454 13.192Z" fill="#B3B3B3" stroke="#B3B3B3" stroke-width="0.1"/>
</svg>
