<svg width="16" height="16" viewBox="0 0 16 16" fill="none" xmlns="http://www.w3.org/2000/svg">
<path d="M1.61086 10.4185L5.77097 14.586C6.58545 15.4019 7.9095 15.4019 8.72398 14.586L14.8054 8.49383C15.0393 8.25951 15.173 7.93733 15.173 7.60679V1H8.57779C8.24365 1 7.92621 1.13389 7.69231 1.36821L1.61086 7.46034C0.79638 8.27625 0.79638 9.60263 1.61086 10.4185Z" stroke="#DE1212" stroke-miterlimit="10" stroke-linecap="round" stroke-linejoin="round"/>
<path d="M11.0338 6.85782C11.9565 6.85782 12.7045 6.1085 12.7045 5.18416C12.7045 4.25982 11.9565 3.5105 11.0338 3.5105C10.111 3.5105 9.36304 4.25982 9.36304 5.18416C9.36304 6.1085 10.111 6.85782 11.0338 6.85782Z" fill="#FD9902"/>
</svg>
