<svg width="16" height="16" viewBox="0 0 16 16" fill="none" xmlns="http://www.w3.org/2000/svg">
<path d="M8.28412 9.77612C9.46638 9.77612 10.4248 8.81735 10.4248 7.63464C10.4248 6.45194 9.46638 5.49316 8.28412 5.49316C7.10186 5.49316 6.14343 6.45194 6.14343 7.63464C6.14343 8.81735 7.10186 9.77612 8.28412 9.77612Z" stroke="#FD9902" stroke-miterlimit="10" stroke-linecap="round" stroke-linejoin="round"/>
<path d="M14.9161 8.88405V6.38505H12.908C12.8012 5.98329 12.6428 5.59995 12.4365 5.24611L13.855 3.82707L12.0901 2.06153L10.6716 3.4806C10.3179 3.27787 9.93472 3.11568 9.53312 3.00511V1H7.03506V3.00511C6.63346 3.11568 6.25029 3.27419 5.89658 3.4806L4.47804 2.06153L2.71322 3.82707L4.13172 5.24611C3.92908 5.59995 3.77063 5.98329 3.6601 6.38505H1.6521V8.88405H3.6601C3.76695 9.28581 3.92539 9.66915 4.13172 10.023L2.71322 11.442L4.47804 13.2075L5.89658 11.7885C6.25029 11.9912 6.63346 12.1534 7.03506 12.264V14.2691H9.53312V12.264C9.93472 12.1534 10.3179 11.9949 10.6716 11.7885L12.0901 13.2075L13.855 11.442L12.4365 10.023C12.6391 9.66915 12.7975 9.28581 12.908 8.88405H14.9161Z" stroke="#DE1212" stroke-miterlimit="10" stroke-linecap="round" stroke-linejoin="round"/>
<g opacity="0.15">
<g opacity="0.15">
<path opacity="0.15" d="M7.63202 10.4985C8.81428 10.4985 9.77267 9.53976 9.77267 8.35705C9.77267 7.17435 8.81428 6.21558 7.63202 6.21558C6.44976 6.21558 5.49133 7.17435 5.49133 8.35705C5.49133 9.53976 6.44976 10.4985 7.63202 10.4985Z" stroke="#FD9902" stroke-miterlimit="10" stroke-linecap="round" stroke-linejoin="round"/>
</g>
<path opacity="0.15" d="M14.264 9.60647V7.10745H12.2559C12.1491 6.70569 11.9907 6.32237 11.7844 5.96853L13.2029 4.54946L11.438 2.78394L10.0195 4.20299C9.66579 4.00027 9.28263 3.8381 8.88102 3.72752V1.72241H6.38296V3.72752C5.98136 3.8381 5.59819 3.99658 5.24448 4.20299L3.82598 2.78394L2.06112 4.54946L3.47962 5.96853C3.27698 6.32237 3.11853 6.70569 3.008 7.10745H1V9.60647H3.008C3.11485 10.0082 3.27329 10.3915 3.47962 10.7454L2.06112 12.1645L3.82598 13.93L5.24448 12.5109C5.59819 12.7137 5.98136 12.8758 6.38296 12.9864V14.9915H8.88102V12.9864C9.28263 12.8758 9.66579 12.7173 10.0195 12.5109L11.438 13.93L13.2029 12.1645L11.7844 10.7454C11.987 10.3915 12.1454 10.0082 12.2559 9.60647H14.264Z" stroke="#FD9902" stroke-miterlimit="10" stroke-linecap="round" stroke-linejoin="round"/>
</g>
</svg>
