<svg width="24" height="24" viewBox="0 0 24 24" fill="none" xmlns="http://www.w3.org/2000/svg">
<path fill-rule="evenodd" clip-rule="evenodd" d="M9.71998 0.960565C6.46645 -0.869452 3.58492 -0.00919366 1.18865 2.89933C-1.12287 5.70586 0.453644 10.7654 1.58615 14.4029C1.85616 15.2699 2.10141 16.0567 2.26266 16.7122C3.09892 20.1172 3.89993 22.2398 5.72469 23.7758C6.62845 24.5363 7.65371 23.229 8.73522 21.8505C9.67273 20.655 10.6522 19.4055 11.6325 19.4025C12.5963 19.3995 13.5608 20.6475 14.4855 21.843C15.5528 23.223 16.5668 24.5355 17.4653 23.7758C18.8603 22.5983 19.4926 21.7343 20.2591 19.3087C21.0938 16.6635 22.4431 13.4999 23.5156 9.8534C24.2701 7.28837 24.3601 4.67535 22.1858 2.15458C19.0808 -1.44546 14.778 0.41456 12.7748 1.60482L15.4883 3.92984C15.5631 3.99396 15.6246 4.07219 15.6692 4.16008C15.7139 4.24796 15.7407 4.34377 15.7483 4.44204C15.7559 4.54031 15.7441 4.63911 15.7135 4.7328C15.6829 4.8265 15.6342 4.91325 15.57 4.9881C15.5059 5.06296 15.4277 5.12445 15.3398 5.16907C15.2519 5.21369 15.1561 5.24056 15.0578 5.24815C14.9596 5.25574 14.8608 5.2439 14.7671 5.21331C14.6734 5.18272 14.5866 5.13397 14.5118 5.06985L9.71998 0.959815V0.960565Z" fill="#71D8FF"/>
</svg>
