<svg width="45" height="52" viewBox="0 0 45 52" fill="none" xmlns="http://www.w3.org/2000/svg">
<path d="M23.0306 27.5918C25.9611 27.5918 28.3367 24.9786 28.3367 21.7551C28.3367 18.5315 25.9611 15.9183 23.0306 15.9183C20.1001 15.9183 17.7245 18.5315 17.7245 21.7551C17.7245 24.9786 20.1001 27.5918 23.0306 27.5918Z" fill="#FD9902"/>
<path d="M7.11693 36.7696L22.5001 52L37.8833 36.7696C41.9924 32.7015 44.2551 27.2927 44.2551 21.5392C44.2551 9.66238 34.496 0 22.5001 0C10.5042 0 0.744904 9.66238 0.744904 21.5392C0.744904 27.2927 3.00782 32.7013 7.11693 36.7696ZM9.62221 21.5396C9.62221 14.5092 15.3994 8.78961 22.5001 8.78961C29.6009 8.78961 35.378 14.5094 35.378 21.5396C35.378 28.5699 29.6011 34.2899 22.5001 34.2899C15.3991 34.2899 9.62221 28.5701 9.62221 21.5396Z" fill="#DE1212"/>
</svg>
