<svg width="25" height="24" viewBox="0 0 25 24" fill="none" xmlns="http://www.w3.org/2000/svg">
<path d="M16.25 11H8.25C7.7 11 7.25 11.45 7.25 12C7.25 12.55 7.7 13 8.25 13H16.25C16.8 13 17.25 12.55 17.25 12C17.25 11.45 16.8 11 16.25 11ZM19.25 4H18.25V3C18.25 2.45 17.8 2 17.25 2C16.7 2 16.25 2.45 16.25 3V4H8.25V3C8.25 2.45 7.8 2 7.25 2C6.7 2 6.25 2.45 6.25 3V4H5.25C4.14 4 3.25 4.9 3.25 6V20C3.25 21.1 4.14 22 5.25 22H19.25C20.35 22 21.25 21.1 21.25 20V6C21.25 4.9 20.35 4 19.25 4ZM18.25 20H6.25C5.7 20 5.25 19.55 5.25 19V9H19.25V19C19.25 19.55 18.8 20 18.25 20ZM13.25 15H8.25C7.7 15 7.25 15.45 7.25 16C7.25 16.55 7.7 17 8.25 17H13.25C13.8 17 14.25 16.55 14.25 16C14.25 15.45 13.8 15 13.25 15Z" fill="#0099FF"/>
</svg>
