<svg width="40" height="32" viewBox="0 0 40 32" fill="none" xmlns="http://www.w3.org/2000/svg">
<path d="M50.2332 40.8513L46.8321 54.7739L46.2155 57.1165L45.7603 58.8491L37.3271 55.2159C37.3271 55.2159 37.1835 74.533 36.7548 80.0358C24.7238 82.4402 10.5426 82.0645 -4.92257 80.0358C-4.08279 66.8535 -2.65959 58.0933 -0.489421 45.4236L-7.20764 47.1386C-6.60419 45.3916 -6.38777 43.5344 -6.57339 41.6955C-6.60433 41.3728 -6.65074 41.0435 -6.71041 40.7054C-7.52588 36.3894 -9.20101 31.5275 -10.9093 28.6126C-8.96352 27.7642 -6.97141 27.0264 -4.94245 26.4027C3.83064 23.7058 13.0846 22.9458 22.1802 24.175C34.1139 25.8281 40.8852 34.0203 46.7769 38.606C47.8464 39.4744 49.005 40.2271 50.2332 40.8513Z" fill="#EFB866"/>
<path d="M50.1381 41.0501C48.8895 40.4227 47.7122 39.6625 46.6265 38.7827C45.4199 37.8435 44.1779 36.7562 42.8696 35.6048C37.8376 31.1849 31.5724 25.7043 22.1403 24.396C13.0782 23.1644 3.8566 23.9185 -4.88509 26.6059C-6.90402 27.2247 -8.88653 27.9566 -10.8232 28.7982L-11 28.3938C-9.0482 27.5454 -7.05019 26.8076 -5.01547 26.1838C3.78767 23.474 13.0748 22.7108 22.2022 23.9474C31.7669 25.2733 38.0851 30.8115 43.1613 35.2623C44.4696 36.4092 45.7072 37.4921 46.9028 38.4247C47.9643 39.2823 49.1149 40.0232 50.3348 40.6347L50.1381 41.0501Z" fill="#262535"/>
<path d="M14.156 13.2557C13.6079 11.4303 13.2963 7.18058 14.7991 4.41594C18.4742 -2.37522 19.546 -0.0547801 19.1107 2.92644C22.2046 -1.21279 31.199 -0.388483 27.02 5.33527C27.02 5.33527 23.42 10.5839 22.5294 10.9308C21.6388 11.2778 15.1416 16.5419 14.156 13.2557Z" fill="#262535"/>
<path d="M28.357 19.9539C28.1648 21.2976 25.7957 21.6335 25.7957 21.6335C25.7957 21.6335 25.8222 22.8865 25.8532 24.1749C25.8841 25.5274 25.915 26.9175 25.915 26.9816C24.6178 31.1075 18.7924 30.1705 16.8918 26.5396L15.3979 15.4169C13.5327 16.765 11.4752 15.3771 11.6697 13.5031C11.8907 11.3352 14.3217 10.9241 15.3979 12.6611C16.3592 11.6755 16.6708 10.597 16.262 9.10974C15.9747 8.06665 16.8852 6.35173 18.9957 6.99925C20.62 7.49869 24.5603 7.26223 27.0067 5.3219C27.2565 7.07218 28.5493 18.6103 28.357 19.9539Z" fill="#6FCAE6"/>
<path d="M12.7615 13.89L12.4653 13.7397C12.6048 13.4934 12.8054 13.2872 13.0477 13.1409C13.29 12.9946 13.5659 12.9131 13.8488 12.9043C14.1095 12.8879 14.3699 12.943 14.6016 13.0638C14.8333 13.1845 15.0277 13.3663 15.1637 13.5894L14.8808 13.764C14.7756 13.5911 14.625 13.4504 14.4454 13.3573C14.2657 13.2641 14.0639 13.2221 13.862 13.2358C13.6379 13.2414 13.419 13.3045 13.2263 13.4191C13.0336 13.5336 12.8735 13.6958 12.7615 13.89Z" fill="#262535"/>
<path d="M22.1669 16.9839C23.5901 17.406 24.8564 17.2049 25.7337 16.6989C25.8531 19.1607 22.3503 19.1939 22.1669 16.9839Z" fill="white"/>
<path d="M23.6298 15.2359L23.5502 14.9132C24.0862 14.769 24.5905 14.5262 25.0375 14.1972C24.3961 13.4822 23.9983 12.5821 23.9014 11.6265C23.8045 10.6709 24.0135 9.70922 24.4983 8.88005C25.1016 7.9342 26.0231 7.57398 26.9624 7.91652L26.8497 8.22813C26.0541 7.93862 25.3027 8.24138 24.7789 9.05685C23.9524 10.3541 23.9524 12.648 25.3955 14.0911L25.5193 14.2149L25.3911 14.332C24.8771 14.7584 24.2759 15.0669 23.6298 15.2359Z" fill="#262535"/>
<path d="M18.9493 10.3873L18.6266 10.3143C18.7268 9.90688 18.9348 9.53389 19.2287 9.23449C19.5227 8.93508 19.8918 8.7203 20.2974 8.61267C21.0355 8.43366 21.7427 8.69886 22.2863 9.353L22.0322 9.574C21.5681 9.0193 20.9758 8.79609 20.3681 8.94195C20.0238 9.0337 19.7105 9.21625 19.461 9.47049C19.2114 9.72474 19.0347 10.0414 18.9493 10.3873Z" fill="#262535"/>
<path d="M21.2894 12.7916C21.6422 12.7916 21.9281 12.5057 21.9281 12.153C21.9281 11.8002 21.6422 11.5143 21.2894 11.5143C20.9367 11.5143 20.6508 11.8002 20.6508 12.153C20.6508 12.5057 20.9367 12.7916 21.2894 12.7916Z" fill="#262535"/>
<path d="M26.2642 12.3032C26.6169 12.3032 26.9028 12.0173 26.9028 11.6645C26.9028 11.3118 26.6169 11.0259 26.2642 11.0259C25.9114 11.0259 25.6255 11.3118 25.6255 11.6645C25.6255 12.0173 25.9114 12.3032 26.2642 12.3032Z" fill="#262535"/>
</svg>
