<svg width="16" height="14" viewBox="0 0 16 14" fill="none" xmlns="http://www.w3.org/2000/svg">
<path d="M3.69634 1H2.29481C1.41736 1 0.706665 1.71097 0.706665 2.58875V9.15031C0.706665 10.0281 1.41736 10.7391 2.29481 10.7391H4.78422C5.20508 10.7391 5.61006 10.9059 5.90783 11.2038L7.85331 13.15L9.79878 11.2038C10.0966 10.9059 10.5015 10.7391 10.9224 10.7391H13.4118C14.2893 10.7391 14.9999 10.0281 14.9999 9.15031V2.58875C14.9999 1.71097 14.2893 1 13.4118 1H5.63785" stroke="#DE1212" stroke-miterlimit="10" stroke-linecap="round" stroke-linejoin="round"/>
<path d="M12 7C12.5523 7 13 6.55228 13 6C13 5.44771 12.5523 5 12 5C11.4477 5 11 5.44771 11 6C11 6.55228 11.4477 7 12 7Z" fill="#FD9902"/>
<path d="M4 7C4.55228 7 5 6.55228 5 6C5 5.44771 4.55228 5 4 5C3.44771 5 3 5.44771 3 6C3 6.55228 3.44771 7 4 7Z" fill="#FD9902"/>
<path d="M8 7C8.55228 7 9 6.55228 9 6C9 5.44771 8.55228 5 8 5C7.44771 5 7 5.44771 7 6C7 6.55228 7.44771 7 8 7Z" fill="#FD9902"/>
</svg>
