<svg width="28" height="28" viewBox="0 0 28 28" fill="none" xmlns="http://www.w3.org/2000/svg">
<path d="M23.548 13.9519V22.9177C23.548 24.4314 22.3219 25.6574 20.8082 25.6574H8.28769C6.77399 25.6574 5.54796 24.4314 5.54796 22.9177V13.9519" stroke="#DEDEDE" stroke-width="2" stroke-miterlimit="10" stroke-linecap="round" stroke-linejoin="round"/>
<path d="M2.21234 11.0411L14.5411 1L26.8699 11.0411" stroke="#DEDEDE" stroke-width="2" stroke-miterlimit="10" stroke-linecap="round" stroke-linejoin="round"/>
<path d="M14.8731 16.0548C15.4405 16.0548 15.9005 15.5948 15.9005 15.0274C15.9005 14.46 15.4405 14 14.8731 14C14.3057 14 13.8457 14.46 13.8457 15.0274C13.8457 15.5948 14.3057 16.0548 14.8731 16.0548Z" stroke="#DEDEDE" stroke-width="6" stroke-miterlimit="10" stroke-linecap="round" stroke-linejoin="round"/>
<g opacity="0.15">
<g opacity="0.15">
<path opacity="0.15" d="M22.3288 15.2944V24.2602C22.3288 25.7739 21.1028 26.9999 19.5891 26.9999H7.06849C5.55479 26.9999 4.32877 25.7739 4.32877 24.2602V15.2944" stroke="#DEDEDE" stroke-width="2" stroke-miterlimit="10" stroke-linecap="round" stroke-linejoin="round"/>
<path opacity="0.15" d="M1 12.3836L13.3288 2.34253L25.6576 12.3836" stroke="#DEDEDE" stroke-width="2" stroke-miterlimit="10" stroke-linecap="round" stroke-linejoin="round"/>
</g>
</g>
</svg>
