<svg width="38" height="50" viewBox="0 0 38 50" fill="none" xmlns="http://www.w3.org/2000/svg">
<g filter="url(#filter0_f_8058_1876)">
<ellipse cx="12" cy="29" rx="4" ry="2" fill="black" fill-opacity="0.12"/>
</g>
<mask id="path-2-outside-1_8058_1876" maskUnits="userSpaceOnUse" x="2.125" y="2.125" width="34" height="43" fill="black">
<rect fill="white" x="2.125" y="2.125" width="34" height="43"/>
<path fill-rule="evenodd" clip-rule="evenodd" d="M27.9937 31.3487C31.8634 28.5047 34.375 23.9207 34.375 18.75C34.375 10.1206 27.3794 3.125 18.75 3.125C10.1206 3.125 3.125 10.1206 3.125 18.75C3.125 23.9207 5.63659 28.5047 9.50634 31.3487C12.447 33.5646 16.5921 37.0601 17.545 42.6867C17.6459 43.2827 18.1455 43.7452 18.75 43.7452C19.3545 43.7452 19.8541 43.2827 19.955 42.6867C20.9079 37.0601 25.053 33.5646 27.9937 31.3487Z"/>
</mask>
<path fill-rule="evenodd" clip-rule="evenodd" d="M27.9937 31.3487C31.8634 28.5047 34.375 23.9207 34.375 18.75C34.375 10.1206 27.3794 3.125 18.75 3.125C10.1206 3.125 3.125 10.1206 3.125 18.75C3.125 23.9207 5.63659 28.5047 9.50634 31.3487C12.447 33.5646 16.5921 37.0601 17.545 42.6867C17.6459 43.2827 18.1455 43.7452 18.75 43.7452C19.3545 43.7452 19.8541 43.2827 19.955 42.6867C20.9079 37.0601 25.053 33.5646 27.9937 31.3487Z" fill="#EA352B"/>
<path d="M27.9937 31.3487L27.4014 30.5429L27.3919 30.5501L27.9937 31.3487ZM9.50634 31.3487L10.1082 30.55L10.0985 30.5429L9.50634 31.3487ZM17.545 42.6867L18.5309 42.5198L18.5309 42.5198L17.545 42.6867ZM19.955 42.6867L18.9691 42.5198L18.9691 42.5198L19.955 42.6867ZM28.5859 32.1545C32.701 29.1302 35.375 24.2523 35.375 18.75H33.375C33.375 23.589 31.0259 27.8792 27.4015 30.5429L28.5859 32.1545ZM35.375 18.75C35.375 9.56827 27.9317 2.125 18.75 2.125V4.125C26.8272 4.125 33.375 10.6728 33.375 18.75H35.375ZM18.75 2.125C9.56827 2.125 2.125 9.56827 2.125 18.75H4.125C4.125 10.6728 10.6728 4.125 18.75 4.125V2.125ZM2.125 18.75C2.125 24.2523 4.79904 29.1302 8.91414 32.1545L10.0985 30.5429C6.47414 27.8792 4.125 23.589 4.125 18.75H2.125ZM18.5309 42.5198C17.5077 36.4775 13.0628 32.7765 10.1081 30.5501L8.90454 32.1474C11.8312 34.3526 15.6765 37.6428 16.559 42.8537L18.5309 42.5198ZM18.75 42.7452C18.7098 42.7452 18.667 42.7313 18.6244 42.6933C18.5796 42.6533 18.5432 42.5925 18.5309 42.5198L16.559 42.8537C16.7334 43.8835 17.6113 44.7452 18.75 44.7452V42.7452ZM18.9691 42.5198C18.9568 42.5925 18.9204 42.6533 18.8756 42.6933C18.833 42.7313 18.7902 42.7452 18.75 42.7452V44.7452C19.8887 44.7452 20.7666 43.8835 20.941 42.8537L18.9691 42.5198ZM27.3919 30.5501C24.4372 32.7765 19.9923 36.4775 18.9691 42.5198L20.941 42.8537C21.8235 37.6428 25.6688 34.3526 28.5955 32.1474L27.3919 30.5501Z" fill="url(#paint0_linear_8058_1876)" mask="url(#path-2-outside-1_8058_1876)"/>
<circle cx="18.75" cy="18.75" r="6.25" fill="black" fill-opacity="0.4"/>
<defs>
<filter id="filter0_f_8058_1876" x="6" y="25" width="12" height="8" filterUnits="userSpaceOnUse" color-interpolation-filters="sRGB">
<feFlood flood-opacity="0" result="BackgroundImageFix"/>
<feBlend mode="normal" in="SourceGraphic" in2="BackgroundImageFix" result="shape"/>
<feGaussianBlur stdDeviation="1" result="effect1_foregroundBlur_8058_1876"/>
</filter>
<linearGradient id="paint0_linear_8058_1876" x1="18.75" y1="3.125" x2="18.75" y2="43.7452" gradientUnits="userSpaceOnUse">
<stop stop-color="white"/>
<stop offset="1" stop-color="white" stop-opacity="0.35"/>
</linearGradient>
</defs>
</svg>
