<svg width="36" height="37" viewBox="0 0 36 37" fill="none" xmlns="http://www.w3.org/2000/svg">
<path d="M15.5 26.3125H20.5" stroke="#262535" stroke-width="1.5" stroke-linecap="round" stroke-linejoin="round"/>
<path d="M12.3909 16.625C12.3899 15.8837 12.5355 15.1496 12.8195 14.4649C13.1036 13.7802 13.5203 13.1585 14.0457 12.6357C14.5711 12.1128 15.1948 11.6991 15.8808 11.4184C16.5668 11.1377 17.3016 10.9955 18.0429 11.0001C21.1358 11.0231 23.6098 13.594 23.6098 16.6956V16.9375C23.6098 19.7355 24.1952 21.3592 24.7108 22.2467C24.7663 22.3415 24.7959 22.4493 24.7965 22.5592C24.7971 22.6691 24.7687 22.7772 24.7141 22.8726C24.6596 22.968 24.5809 23.0474 24.4859 23.1026C24.3909 23.1579 24.2831 23.1872 24.1732 23.1875H11.8269C11.717 23.1872 11.6091 23.1579 11.5141 23.1026C11.4191 23.0473 11.3404 22.968 11.2859 22.8725C11.2313 22.7771 11.203 22.669 11.2036 22.5591C11.2042 22.4492 11.2338 22.3414 11.2893 22.2465C11.8052 21.3591 12.3909 19.7354 12.3909 16.9375L12.3909 16.625Z" stroke="#262535" stroke-width="1.5" stroke-linecap="round" stroke-linejoin="round"/>
<rect x="0.5" y="1" width="35" height="35" rx="17.5" stroke="#D1DAE1"/>
</svg>
