<svg width="2581" height="1283" viewBox="0 0 2581 1283" fill="none" xmlns="http://www.w3.org/2000/svg">
<g clip-path="url(#clip0_182_3)">
<mask id="path-1-outside-1_182_3" maskUnits="userSpaceOnUse" x="-1021" y="275" width="2995" height="1280" fill="black">
<rect fill="white" x="-1021" y="275" width="2995" height="1280"/>
<path fill-rule="evenodd" clip-rule="evenodd" d="M-769.017 306.237C-801.81 310.665 -828.024 318.754 -856.782 333.32C-918.263 364.46 -965.229 424.77 -982.9 495.271C-987.572 513.911 -988.977 525.74 -988.998 546.622C-989.016 565.587 -988.948 566.244 -986.517 570.571C-985.142 573.018 -982.46 575.927 -980.558 577.035C-976.167 579.593 -967.884 579.748 -964.21 577.34C-962.774 576.4 -952.693 564.74 -941.808 551.429C-909.644 512.099 -889.42 490.697 -862.517 467.521C-854.467 460.586 -833.323 444.643 -832.16 444.631C-831.689 444.626 -831.588 445.363 -831.935 446.27C-833.367 449.999 -833.686 462.807 -832.605 473.122C-826.729 529.198 -812.741 593.517 -793.46 653.122C-788.654 667.98 -778.109 697.879 -775.65 703.622C-775.062 704.997 -772.984 710.292 -771.034 715.388C-769.084 720.484 -763.944 732.859 -759.613 742.888C-711.059 855.315 -646.569 958.467 -566.747 1051.38C-559.78 1059.49 -553.616 1066.61 -553.048 1067.22C-552.481 1067.82 -548.417 1072.32 -544.017 1077.21C-484.519 1143.42 -409.298 1210.54 -334.017 1264.62C-174.27 1379.36 13.3738 1459.87 208.983 1497.58C240.133 1503.59 244.161 1504.29 265.983 1507.55C311.427 1514.33 340.902 1517.55 387.504 1520.82C414.612 1522.73 427.176 1523.03 477.983 1523.03C528.544 1523.02 541.435 1522.7 568.106 1520.82C652.205 1514.89 723.865 1504.14 801.983 1485.75C860.453 1471.98 932.405 1449.65 985.483 1428.8C989.608 1427.17 997.105 1424.23 1002.14 1422.26C1007.18 1420.29 1012.81 1418 1014.64 1417.17C1016.48 1416.35 1025.87 1412.32 1035.52 1408.22C1126.54 1369.55 1224.28 1313.3 1306.48 1252.29C1363.28 1210.13 1411.01 1168.41 1463.96 1114.62C1495.57 1082.5 1512.9 1063.27 1540.08 1030.12C1615.86 937.684 1676.51 836.503 1722.3 726.122C1754.53 648.403 1776.79 564.642 1787.09 482.273C1789.4 463.825 1789.67 459.311 1788.8 453.273C1788.24 449.34 1787.84 446.037 1787.9 445.934C1788.24 445.418 1808.75 461.297 1818.79 469.848C1843.52 490.912 1863.78 512.469 1896.23 552.285C1905.72 563.925 1914.8 574.556 1916.41 575.91C1924.11 582.387 1935.78 579.297 1941.22 569.34C1942.74 566.562 1942.97 563.457 1942.89 546.622C1942.82 530.091 1942.39 524.838 1940.11 512.122C1930.02 455.938 1901.42 404.405 1859.39 366.683C1826.93 337.553 1784.72 317.249 1738.47 308.519C1727.36 306.421 1723.07 306.16 1699.48 306.142L1672.98 306.122L1652.48 310.438C1641.21 312.811 1628.38 316.028 1623.98 317.585C1605.23 324.223 1579.44 336.58 1574.11 341.481C1567.06 347.959 1566.42 360.619 1572.8 367.467C1577.3 372.3 1587.62 375.696 1614.45 381.17C1646.41 387.691 1672.64 394.418 1700.89 403.338L1705.8 404.887L1670.39 416.654C1650.92 423.125 1627.11 431.131 1617.48 434.445C1607.86 437.759 1576.81 447.656 1548.48 456.438C1497.84 472.14 1491.46 474.066 1480.48 476.988C1477.46 477.793 1466.43 480.766 1455.98 483.594C1407.82 496.628 1355.42 509.695 1335.48 513.639C1323.24 516.06 1286.17 523.948 1271.98 527.149C1263.18 529.134 1245.86 532.296 1233.48 534.176C1221.11 536.055 1203.39 539.174 1194.1 541.106C1184.82 543.038 1170.42 545.51 1162.1 546.6C1153.79 547.689 1139.78 549.51 1130.98 550.647C1122.18 551.783 1108.23 553.588 1099.98 554.657C1071.1 558.401 1027.81 563.556 1008.48 565.552C950.556 571.536 853.582 579.015 800.483 581.594C788.658 582.168 770.883 583.084 760.983 583.63C621.463 591.317 404.952 592.142 238.983 585.617C99.1088 580.119 -28.8922 569.776 -144.517 554.631C-153.042 553.515 -172.617 551.021 -188.017 549.089C-203.417 547.157 -226.142 543.565 -238.517 541.105C-250.892 538.645 -270.017 535.292 -281.017 533.654C-292.017 532.016 -307.092 529.283 -314.517 527.582C-335.073 522.873 -344.227 520.904 -366.017 516.503C-400.291 509.58 -448.764 497.649 -509.517 481.183C-532.961 474.829 -539.856 472.777 -591.017 456.931C-642.276 441.054 -656.07 436.574 -696.017 422.835C-708.667 418.484 -726.11 412.747 -734.78 410.086C-743.45 407.425 -750.2 404.919 -749.78 404.516C-748.47 403.259 -712.828 392.985 -695.017 388.731C-685.667 386.497 -670.232 383.096 -660.718 381.174C-640.56 377.1 -624.891 372.49 -621.121 369.525C-612.211 362.517 -612.543 347.255 -621.758 340.266C-628.33 335.282 -655.833 322.531 -671.947 316.998C-675.758 315.69 -687.908 312.744 -698.947 310.452C-718.834 306.323 -719.231 306.283 -742.517 306.059C-755.442 305.934 -767.367 306.015 -769.017 306.237ZM-711.39 505.721C-675.118 518.156 -572.831 550.303 -547.517 557.224C-470.15 578.374 -419.873 590.81 -378.517 599.025C-371.642 600.391 -359.829 602.884 -352.267 604.565C-344.704 606.246 -332.554 608.941 -325.267 610.553C-317.98 612.166 -303.917 614.648 -294.017 616.07C-284.117 617.493 -266.117 620.642 -254.017 623.069C-241.917 625.497 -222.567 628.656 -211.017 630.091C-191.313 632.538 -182.399 633.691 -145.017 638.632C-16.4612 655.623 137.521 666.497 324.483 671.789C380.296 673.369 574.548 673.385 630.483 671.815C761.456 668.139 885.001 661.157 979.483 652.091C988.008 651.273 997.458 650.38 1000.48 650.106C1003.51 649.832 1016.78 648.465 1029.98 647.068C1051.69 644.771 1071.06 642.377 1159.37 631.08C1174.44 629.153 1198.06 625.367 1211.87 622.667C1225.68 619.966 1242.38 617.033 1248.98 616.147C1261.52 614.465 1285.64 609.823 1298.48 606.621C1302.61 605.593 1316.33 602.656 1328.98 600.096C1376.12 590.555 1439.78 574.863 1505.98 556.47C1527.68 550.442 1629.48 518.553 1653.98 510.108C1685.45 499.263 1700.54 494.339 1700.95 494.779C1701.29 495.136 1700.47 499.955 1695.34 527.622C1670.99 659.165 1602.55 808.842 1509.69 933.622C1421.24 1052.49 1304.4 1160.11 1177.48 1239.64C1109.85 1282.02 1035.16 1319.84 965.088 1347.2C957.33 1350.22 949.858 1353.18 948.483 1353.77C943.005 1356.11 908.878 1368.17 890.483 1374.26C857.915 1385.05 804.708 1399.89 774.483 1406.61C739.798 1414.33 721.102 1417.99 690.483 1423.04C581.368 1441.03 466.05 1445 354.983 1434.57C137.452 1414.14 -70.6602 1340.78 -250.017 1221.31C-319.77 1174.85 -379.958 1125.34 -441.051 1064.18C-510.692 994.469 -568.694 920.442 -616.216 840.622C-680.735 732.254 -723.586 621.477 -742.522 514.095C-745.822 495.384 -745.905 494.622 -744.64 494.622C-744.157 494.622 -729.195 499.616 -711.39 505.721Z"/>
</mask>
<path fill-rule="evenodd" clip-rule="evenodd" d="M-769.017 306.237C-801.81 310.665 -828.024 318.754 -856.782 333.32C-918.263 364.46 -965.229 424.77 -982.9 495.271C-987.572 513.911 -988.977 525.74 -988.998 546.622C-989.016 565.587 -988.948 566.244 -986.517 570.571C-985.142 573.018 -982.46 575.927 -980.558 577.035C-976.167 579.593 -967.884 579.748 -964.21 577.34C-962.774 576.4 -952.693 564.74 -941.808 551.429C-909.644 512.099 -889.42 490.697 -862.517 467.521C-854.467 460.586 -833.323 444.643 -832.16 444.631C-831.689 444.626 -831.588 445.363 -831.935 446.27C-833.367 449.999 -833.686 462.807 -832.605 473.122C-826.729 529.198 -812.741 593.517 -793.46 653.122C-788.654 667.98 -778.109 697.879 -775.65 703.622C-775.062 704.997 -772.984 710.292 -771.034 715.388C-769.084 720.484 -763.944 732.859 -759.613 742.888C-711.059 855.315 -646.569 958.467 -566.747 1051.38C-559.78 1059.49 -553.616 1066.61 -553.048 1067.22C-552.481 1067.82 -548.417 1072.32 -544.017 1077.21C-484.519 1143.42 -409.298 1210.54 -334.017 1264.62C-174.27 1379.36 13.3738 1459.87 208.983 1497.58C240.133 1503.59 244.161 1504.29 265.983 1507.55C311.427 1514.33 340.902 1517.55 387.504 1520.82C414.612 1522.73 427.176 1523.03 477.983 1523.03C528.544 1523.02 541.435 1522.7 568.106 1520.82C652.205 1514.89 723.865 1504.14 801.983 1485.75C860.453 1471.98 932.405 1449.65 985.483 1428.8C989.608 1427.17 997.105 1424.23 1002.14 1422.26C1007.18 1420.29 1012.81 1418 1014.64 1417.17C1016.48 1416.35 1025.87 1412.32 1035.52 1408.22C1126.54 1369.55 1224.28 1313.3 1306.48 1252.29C1363.28 1210.13 1411.01 1168.41 1463.96 1114.62C1495.57 1082.5 1512.9 1063.27 1540.08 1030.12C1615.86 937.684 1676.51 836.503 1722.3 726.122C1754.53 648.403 1776.79 564.642 1787.09 482.273C1789.4 463.825 1789.67 459.311 1788.8 453.273C1788.24 449.34 1787.84 446.037 1787.9 445.934C1788.24 445.418 1808.75 461.297 1818.79 469.848C1843.52 490.912 1863.78 512.469 1896.23 552.285C1905.72 563.925 1914.8 574.556 1916.41 575.91C1924.11 582.387 1935.78 579.297 1941.22 569.34C1942.74 566.562 1942.97 563.457 1942.89 546.622C1942.82 530.091 1942.39 524.838 1940.11 512.122C1930.02 455.938 1901.42 404.405 1859.39 366.683C1826.93 337.553 1784.72 317.249 1738.47 308.519C1727.36 306.421 1723.07 306.16 1699.48 306.142L1672.98 306.122L1652.48 310.438C1641.21 312.811 1628.38 316.028 1623.98 317.585C1605.23 324.223 1579.44 336.58 1574.11 341.481C1567.06 347.959 1566.42 360.619 1572.8 367.467C1577.3 372.3 1587.62 375.696 1614.45 381.17C1646.41 387.691 1672.64 394.418 1700.89 403.338L1705.8 404.887L1670.39 416.654C1650.92 423.125 1627.11 431.131 1617.48 434.445C1607.86 437.759 1576.81 447.656 1548.48 456.438C1497.84 472.14 1491.46 474.066 1480.48 476.988C1477.46 477.793 1466.43 480.766 1455.98 483.594C1407.82 496.628 1355.42 509.695 1335.48 513.639C1323.24 516.06 1286.17 523.948 1271.98 527.149C1263.18 529.134 1245.86 532.296 1233.48 534.176C1221.11 536.055 1203.39 539.174 1194.1 541.106C1184.82 543.038 1170.42 545.51 1162.1 546.6C1153.79 547.689 1139.78 549.51 1130.98 550.647C1122.18 551.783 1108.23 553.588 1099.98 554.657C1071.1 558.401 1027.81 563.556 1008.48 565.552C950.556 571.536 853.582 579.015 800.483 581.594C788.658 582.168 770.883 583.084 760.983 583.63C621.463 591.317 404.952 592.142 238.983 585.617C99.1088 580.119 -28.8922 569.776 -144.517 554.631C-153.042 553.515 -172.617 551.021 -188.017 549.089C-203.417 547.157 -226.142 543.565 -238.517 541.105C-250.892 538.645 -270.017 535.292 -281.017 533.654C-292.017 532.016 -307.092 529.283 -314.517 527.582C-335.073 522.873 -344.227 520.904 -366.017 516.503C-400.291 509.58 -448.764 497.649 -509.517 481.183C-532.961 474.829 -539.856 472.777 -591.017 456.931C-642.276 441.054 -656.07 436.574 -696.017 422.835C-708.667 418.484 -726.11 412.747 -734.78 410.086C-743.45 407.425 -750.2 404.919 -749.78 404.516C-748.47 403.259 -712.828 392.985 -695.017 388.731C-685.667 386.497 -670.232 383.096 -660.718 381.174C-640.56 377.1 -624.891 372.49 -621.121 369.525C-612.211 362.517 -612.543 347.255 -621.758 340.266C-628.33 335.282 -655.833 322.531 -671.947 316.998C-675.758 315.69 -687.908 312.744 -698.947 310.452C-718.834 306.323 -719.231 306.283 -742.517 306.059C-755.442 305.934 -767.367 306.015 -769.017 306.237ZM-711.39 505.721C-675.118 518.156 -572.831 550.303 -547.517 557.224C-470.15 578.374 -419.873 590.81 -378.517 599.025C-371.642 600.391 -359.829 602.884 -352.267 604.565C-344.704 606.246 -332.554 608.941 -325.267 610.553C-317.98 612.166 -303.917 614.648 -294.017 616.07C-284.117 617.493 -266.117 620.642 -254.017 623.069C-241.917 625.497 -222.567 628.656 -211.017 630.091C-191.313 632.538 -182.399 633.691 -145.017 638.632C-16.4612 655.623 137.521 666.497 324.483 671.789C380.296 673.369 574.548 673.385 630.483 671.815C761.456 668.139 885.001 661.157 979.483 652.091C988.008 651.273 997.458 650.38 1000.48 650.106C1003.51 649.832 1016.78 648.465 1029.98 647.068C1051.69 644.771 1071.06 642.377 1159.37 631.08C1174.44 629.153 1198.06 625.367 1211.87 622.667C1225.68 619.966 1242.38 617.033 1248.98 616.147C1261.52 614.465 1285.64 609.823 1298.48 606.621C1302.61 605.593 1316.33 602.656 1328.98 600.096C1376.12 590.555 1439.78 574.863 1505.98 556.47C1527.68 550.442 1629.48 518.553 1653.98 510.108C1685.45 499.263 1700.54 494.339 1700.95 494.779C1701.29 495.136 1700.47 499.955 1695.34 527.622C1670.99 659.165 1602.55 808.842 1509.69 933.622C1421.24 1052.49 1304.4 1160.11 1177.48 1239.64C1109.85 1282.02 1035.16 1319.84 965.088 1347.2C957.33 1350.22 949.858 1353.18 948.483 1353.77C943.005 1356.11 908.878 1368.17 890.483 1374.26C857.915 1385.05 804.708 1399.89 774.483 1406.61C739.798 1414.33 721.102 1417.99 690.483 1423.04C581.368 1441.03 466.05 1445 354.983 1434.57C137.452 1414.14 -70.6602 1340.78 -250.017 1221.31C-319.77 1174.85 -379.958 1125.34 -441.051 1064.18C-510.692 994.469 -568.694 920.442 -616.216 840.622C-680.735 732.254 -723.586 621.477 -742.522 514.095C-745.822 495.384 -745.905 494.622 -744.64 494.622C-744.157 494.622 -729.195 499.616 -711.39 505.721Z" fill="#E5F1FF"/>
<path fill-rule="evenodd" clip-rule="evenodd" d="M-769.017 306.237C-801.81 310.665 -828.024 318.754 -856.782 333.32C-918.263 364.46 -965.229 424.77 -982.9 495.271C-987.572 513.911 -988.977 525.74 -988.998 546.622C-989.016 565.587 -988.948 566.244 -986.517 570.571C-985.142 573.018 -982.46 575.927 -980.558 577.035C-976.167 579.593 -967.884 579.748 -964.21 577.34C-962.774 576.4 -952.693 564.74 -941.808 551.429C-909.644 512.099 -889.42 490.697 -862.517 467.521C-854.467 460.586 -833.323 444.643 -832.16 444.631C-831.689 444.626 -831.588 445.363 -831.935 446.27C-833.367 449.999 -833.686 462.807 -832.605 473.122C-826.729 529.198 -812.741 593.517 -793.46 653.122C-788.654 667.98 -778.109 697.879 -775.65 703.622C-775.062 704.997 -772.984 710.292 -771.034 715.388C-769.084 720.484 -763.944 732.859 -759.613 742.888C-711.059 855.315 -646.569 958.467 -566.747 1051.38C-559.78 1059.49 -553.616 1066.61 -553.048 1067.22C-552.481 1067.82 -548.417 1072.32 -544.017 1077.21C-484.519 1143.42 -409.298 1210.54 -334.017 1264.62C-174.27 1379.36 13.3738 1459.87 208.983 1497.58C240.133 1503.59 244.161 1504.29 265.983 1507.55C311.427 1514.33 340.902 1517.55 387.504 1520.82C414.612 1522.73 427.176 1523.03 477.983 1523.03C528.544 1523.02 541.435 1522.7 568.106 1520.82C652.205 1514.89 723.865 1504.14 801.983 1485.75C860.453 1471.98 932.405 1449.65 985.483 1428.8C989.608 1427.17 997.105 1424.23 1002.14 1422.26C1007.18 1420.29 1012.81 1418 1014.64 1417.17C1016.48 1416.35 1025.87 1412.32 1035.52 1408.22C1126.54 1369.55 1224.28 1313.3 1306.48 1252.29C1363.28 1210.13 1411.01 1168.41 1463.96 1114.62C1495.57 1082.5 1512.9 1063.27 1540.08 1030.12C1615.86 937.684 1676.51 836.503 1722.3 726.122C1754.53 648.403 1776.79 564.642 1787.09 482.273C1789.4 463.825 1789.67 459.311 1788.8 453.273C1788.24 449.34 1787.84 446.037 1787.9 445.934C1788.24 445.418 1808.75 461.297 1818.79 469.848C1843.52 490.912 1863.78 512.469 1896.23 552.285C1905.72 563.925 1914.8 574.556 1916.41 575.91C1924.11 582.387 1935.78 579.297 1941.22 569.34C1942.74 566.562 1942.97 563.457 1942.89 546.622C1942.82 530.091 1942.39 524.838 1940.11 512.122C1930.02 455.938 1901.42 404.405 1859.39 366.683C1826.93 337.553 1784.72 317.249 1738.47 308.519C1727.36 306.421 1723.07 306.16 1699.48 306.142L1672.98 306.122L1652.48 310.438C1641.21 312.811 1628.38 316.028 1623.98 317.585C1605.23 324.223 1579.44 336.58 1574.11 341.481C1567.06 347.959 1566.42 360.619 1572.8 367.467C1577.3 372.3 1587.62 375.696 1614.45 381.17C1646.41 387.691 1672.64 394.418 1700.89 403.338L1705.8 404.887L1670.39 416.654C1650.92 423.125 1627.11 431.131 1617.48 434.445C1607.86 437.759 1576.81 447.656 1548.48 456.438C1497.84 472.14 1491.46 474.066 1480.48 476.988C1477.46 477.793 1466.43 480.766 1455.98 483.594C1407.82 496.628 1355.42 509.695 1335.48 513.639C1323.24 516.06 1286.17 523.948 1271.98 527.149C1263.18 529.134 1245.86 532.296 1233.48 534.176C1221.11 536.055 1203.39 539.174 1194.1 541.106C1184.82 543.038 1170.42 545.51 1162.1 546.6C1153.79 547.689 1139.78 549.51 1130.98 550.647C1122.18 551.783 1108.23 553.588 1099.98 554.657C1071.1 558.401 1027.81 563.556 1008.48 565.552C950.556 571.536 853.582 579.015 800.483 581.594C788.658 582.168 770.883 583.084 760.983 583.63C621.463 591.317 404.952 592.142 238.983 585.617C99.1088 580.119 -28.8922 569.776 -144.517 554.631C-153.042 553.515 -172.617 551.021 -188.017 549.089C-203.417 547.157 -226.142 543.565 -238.517 541.105C-250.892 538.645 -270.017 535.292 -281.017 533.654C-292.017 532.016 -307.092 529.283 -314.517 527.582C-335.073 522.873 -344.227 520.904 -366.017 516.503C-400.291 509.58 -448.764 497.649 -509.517 481.183C-532.961 474.829 -539.856 472.777 -591.017 456.931C-642.276 441.054 -656.07 436.574 -696.017 422.835C-708.667 418.484 -726.11 412.747 -734.78 410.086C-743.45 407.425 -750.2 404.919 -749.78 404.516C-748.47 403.259 -712.828 392.985 -695.017 388.731C-685.667 386.497 -670.232 383.096 -660.718 381.174C-640.56 377.1 -624.891 372.49 -621.121 369.525C-612.211 362.517 -612.543 347.255 -621.758 340.266C-628.33 335.282 -655.833 322.531 -671.947 316.998C-675.758 315.69 -687.908 312.744 -698.947 310.452C-718.834 306.323 -719.231 306.283 -742.517 306.059C-755.442 305.934 -767.367 306.015 -769.017 306.237ZM-711.39 505.721C-675.118 518.156 -572.831 550.303 -547.517 557.224C-470.15 578.374 -419.873 590.81 -378.517 599.025C-371.642 600.391 -359.829 602.884 -352.267 604.565C-344.704 606.246 -332.554 608.941 -325.267 610.553C-317.98 612.166 -303.917 614.648 -294.017 616.07C-284.117 617.493 -266.117 620.642 -254.017 623.069C-241.917 625.497 -222.567 628.656 -211.017 630.091C-191.313 632.538 -182.399 633.691 -145.017 638.632C-16.4612 655.623 137.521 666.497 324.483 671.789C380.296 673.369 574.548 673.385 630.483 671.815C761.456 668.139 885.001 661.157 979.483 652.091C988.008 651.273 997.458 650.38 1000.48 650.106C1003.51 649.832 1016.78 648.465 1029.98 647.068C1051.69 644.771 1071.06 642.377 1159.37 631.08C1174.44 629.153 1198.06 625.367 1211.87 622.667C1225.68 619.966 1242.38 617.033 1248.98 616.147C1261.52 614.465 1285.64 609.823 1298.48 606.621C1302.61 605.593 1316.33 602.656 1328.98 600.096C1376.12 590.555 1439.78 574.863 1505.98 556.47C1527.68 550.442 1629.48 518.553 1653.98 510.108C1685.45 499.263 1700.54 494.339 1700.95 494.779C1701.29 495.136 1700.47 499.955 1695.34 527.622C1670.99 659.165 1602.55 808.842 1509.69 933.622C1421.24 1052.49 1304.4 1160.11 1177.48 1239.64C1109.85 1282.02 1035.16 1319.84 965.088 1347.2C957.33 1350.22 949.858 1353.18 948.483 1353.77C943.005 1356.11 908.878 1368.17 890.483 1374.26C857.915 1385.05 804.708 1399.89 774.483 1406.61C739.798 1414.33 721.102 1417.99 690.483 1423.04C581.368 1441.03 466.05 1445 354.983 1434.57C137.452 1414.14 -70.6602 1340.78 -250.017 1221.31C-319.77 1174.85 -379.958 1125.34 -441.051 1064.18C-510.692 994.469 -568.694 920.442 -616.216 840.622C-680.735 732.254 -723.586 621.477 -742.522 514.095C-745.822 495.384 -745.905 494.622 -744.64 494.622C-744.157 494.622 -729.195 499.616 -711.39 505.721Z" stroke="#E5F1FF" stroke-width="62" mask="url(#path-1-outside-1_182_3)"/>
</g>
<defs>
<clipPath id="clip0_182_3">
<rect width="2581" height="1283" fill="white"/>
</clipPath>
</defs>
</svg>
