<svg width="38" height="38" viewBox="0 0 38 38" fill="none" xmlns="http://www.w3.org/2000/svg">
<path d="M19.8036 20.2967C24.8561 20.2967 28.952 16.2008 28.952 11.1483C28.952 6.09585 24.8561 2 19.8036 2C14.7511 2 10.6553 6.09585 10.6553 11.1483C10.6553 16.2008 14.7511 20.2967 19.8036 20.2967Z" stroke="#FD9902" stroke-width="3" stroke-miterlimit="10" stroke-linecap="round" stroke-linejoin="round"/>
<path d="M35.92 34.232C35.92 26.5341 29.6821 20.2961 21.9842 20.2961H17.6233C9.92544 20.2961 3.6875 26.5341 3.6875 34.232" stroke="#DE1212" stroke-width="3" stroke-miterlimit="10" stroke-linecap="round" stroke-linejoin="round"/>
<g opacity="0.15">
<g opacity="0.15">
<path opacity="0.15" d="M18.1161 22.1543C23.1686 22.1543 27.2645 18.0585 27.2645 13.006C27.2645 7.95352 23.1686 3.85767 18.1161 3.85767C13.0636 3.85767 8.96777 7.95352 8.96777 13.006C8.96777 18.0585 13.0636 22.1543 18.1161 22.1543Z" stroke="#FD9902" stroke-width="3" stroke-miterlimit="10" stroke-linecap="round" stroke-linejoin="round"/>
</g>
<path opacity="0.15" d="M34.2325 36.0904C34.2325 28.3925 27.9946 22.1545 20.2967 22.1545H15.9358C8.23794 22.1545 2 28.3925 2 36.0904" stroke="#FD9902" stroke-width="3" stroke-miterlimit="10" stroke-linecap="round" stroke-linejoin="round"/>
</g>
</svg>
