<svg width="48" height="48" viewBox="0 0 48 48" fill="none" xmlns="http://www.w3.org/2000/svg">
<g clip-path="url(#clip0_16_27)">
<path d="M4.21875 0C1.89253 0 0 1.89253 0 4.21875V21.375H21.375V0H4.21875ZM13.9688 12.0938H12.0938V13.9688C12.0938 14.7454 11.4641 15.375 10.6875 15.375C9.91088 15.375 9.28125 14.7454 9.28125 13.9688V12.0938H7.40625C6.62962 12.0938 6 11.4641 6 10.6875C6 9.91088 6.62962 9.28125 7.40625 9.28125H9.28125V7.40625C9.28125 6.62962 9.91088 6 10.6875 6C11.4641 6 12.0938 6.62962 12.0938 7.40625V9.28125H13.9688C14.7454 9.28125 15.375 9.91088 15.375 10.6875C15.375 11.4641 14.7454 12.0938 13.9688 12.0938Z" fill="#DE1212"/>
<path d="M44.7969 21.375H45.5625V4.21875C45.5625 1.89253 43.67 0 41.3438 0H24.1875V20.8678C26.9706 18.7739 30.4287 17.5312 34.1719 17.5312C38.208 17.5312 41.9126 18.976 44.7969 21.375ZM30.1875 10.6875C30.1875 9.91088 30.8171 9.28125 31.5938 9.28125H38.1562C38.9329 9.28125 39.5625 9.91088 39.5625 10.6875C39.5625 11.4641 38.9329 12.0938 38.1562 12.0938H31.5938C30.8171 12.0938 30.1875 11.4641 30.1875 10.6875Z" fill="#DE1212"/>
<path d="M20.8678 24.1875H0V41.3438C0 43.67 1.89253 45.5625 4.21875 45.5625H21.375V44.7969C18.976 41.9126 17.5312 38.2079 17.5312 34.1719C17.5312 30.4287 18.7739 26.9706 20.8678 24.1875ZM14.0256 36.2244C14.5747 36.7736 14.5747 37.664 14.0256 38.2132C13.7511 38.4877 13.3912 38.625 13.0312 38.625C12.6713 38.625 12.3114 38.4877 12.0369 38.2131L10.6875 36.8637L9.33806 38.2132C9.06356 38.4877 8.70366 38.625 8.34375 38.625C7.98384 38.625 7.62394 38.4877 7.34944 38.2131C6.80025 37.6639 6.80025 36.7735 7.34944 36.2243L8.69878 34.875L7.34934 33.5256C6.80016 32.9764 6.80016 32.086 7.34934 31.5368C7.89844 30.9877 8.78888 30.9877 9.33806 31.5368L10.6875 32.8863L12.0369 31.5368C12.586 30.9877 13.4765 30.9877 14.0257 31.5368C14.5748 32.086 14.5748 32.9764 14.0257 33.5256L12.6762 34.875L14.0256 36.2244Z" fill="#DE1212"/>
<path d="M34.1719 20.3438C26.547 20.3438 20.3438 26.547 20.3438 34.1719C20.3438 41.7968 26.547 48 34.1719 48C41.7968 48 48 41.7968 48 34.1719C48 26.547 41.7968 20.3438 34.1719 20.3438ZM37.4531 37.9219H30.8906C30.114 37.9219 29.4844 37.2923 29.4844 36.5156C29.4844 35.739 30.114 35.1094 30.8906 35.1094H37.4531C38.2298 35.1094 38.8594 35.739 38.8594 36.5156C38.8594 37.2923 38.2298 37.9219 37.4531 37.9219ZM37.4531 33.2344H30.8906C30.114 33.2344 29.4844 32.6048 29.4844 31.8281C29.4844 31.0515 30.114 30.4219 30.8906 30.4219H37.4531C38.2298 30.4219 38.8594 31.0515 38.8594 31.8281C38.8594 32.6048 38.2298 33.2344 37.4531 33.2344Z" fill="#FD9902"/>
</g>
<defs>
<clipPath id="clip0_16_27">
<rect width="48" height="48" fill="white"/>
</clipPath>
</defs>
</svg>
