<svg width="24" height="24" viewBox="0 0 24 24" fill="none" xmlns="http://www.w3.org/2000/svg">
<rect x="0.5" y="3.5" width="23" height="17" rx="2.5" fill="#F6F7FA" stroke="#E6E9ED"/>
<path fill-rule="evenodd" clip-rule="evenodd" d="M12.1487 15.8055C11.2856 16.5504 10.166 17 8.94262 17C6.21289 17 4 14.7614 4 12C4 9.23858 6.21289 7 8.94262 7C10.166 7 11.2856 7.44964 12.1487 8.19446C13.0118 7.44964 14.1313 7 15.3547 7C18.0845 7 20.2974 9.23858 20.2974 12C20.2974 14.7614 18.0845 17 15.3547 17C14.1313 17 13.0118 16.5504 12.1487 15.8055Z" fill="#ED0006"/>
<path fill-rule="evenodd" clip-rule="evenodd" d="M12.1484 15.8055C13.2111 14.8885 13.885 13.5238 13.885 12C13.885 10.4762 13.2111 9.11155 12.1484 8.19446C13.0115 7.44964 14.1311 7 15.3545 7C18.0842 7 20.2971 9.23858 20.2971 12C20.2971 14.7614 18.0842 17 15.3545 17C14.1311 17 13.0115 16.5504 12.1484 15.8055Z" fill="#F9A000"/>
<path fill-rule="evenodd" clip-rule="evenodd" d="M12.1487 15.8055C13.2114 14.8885 13.8852 13.5238 13.8852 12C13.8852 10.4762 13.2114 9.11155 12.1487 8.19446C11.086 9.11155 10.4121 10.4762 10.4121 12C10.4121 13.5238 11.086 14.8885 12.1487 15.8055Z" fill="#FF5E00"/>
</svg>
